<?xml version="1.0" encoding="utf-8"?>
<!-- Generator: Adobe Illustrator 19.2.1, SVG Export Plug-In . SVG Version: 6.00 Build 0)  -->
<svg version="1.1" id="layer" xmlns="http://www.w3.org/2000/svg" xmlns:xlink="http://www.w3.org/1999/xlink" x="0px" y="0px"
	 viewBox="0 0 652 652" style="enable-background:new 0 0 652 652;" xml:space="preserve">
<style type="text/css">
	.st0{fill:#F6A704;}
	.st1{fill:#004A95;}
</style>
<path class="st0" d="M439.1,186.2l-29.4-46.8c0,0-3.2-2.2-11-2.2c-8.2,0-11.3,2.3-11.3,2.3v81c0,0,3.3,2.3,11.1,2.3
	c8.1,0,11.4-2.3,11.4-2.3v-46.5l29.5,46.8c0,0,3.2,2.1,11,2.1c8.1,0,11.2-2.3,11.2-2.3v-81c0,0-3.3-2.3-11.4-2.3
	c-8,0-11.3,2.3-11.3,2.3V186.2z"/>
<path class="st0" d="M533.6,214.6c0-5.6-2.3-8.2-2.3-8.2h-31v-20.7h21.4c0,0,2.3-2.4,2.3-8.3c0-5.6-2.3-8.3-2.3-8.3h-21.4v-15.2
	h28.5c0,0,2.4-2.7,2.4-8.3c0-5.8-2.4-8.3-2.4-8.3h-51.2v85.7h53.6C531.3,222.9,533.6,220.3,533.6,214.6"/>
<path class="st0" d="M572.5,222.9c8.1,0,11.3-2.3,11.3-2.3L593,183l1.5-6.5c0.1,0.6,0.6,3.7,1.3,6.5l9.2,37.6c0,0,3.1,2.3,11.7,2.3
	c7.5-0.1,10.8-2.3,10.8-2.3l23.5-81c0,0-3.4-2.3-11.4-2.3c-7.8,0-11,2.3-11.1,2.3l-12,41.3c-0.7,2.4-1.5,5.5-1.5,6.6l-1.6-6.7
	l-9.7-41.1c0,0-3.7-2.3-8.9-2.3c-5.5,0-9.4,2.3-9.4,2.3l-10.2,41.3c-0.7,2.8-1.4,6.2-1.4,6.6c-0.4-1.4-0.7-3.7-1.6-6.7l-11.6-41.1
	c0,0-3.2-2.3-11.3-2.3c-8,0-11.4,2.3-11.4,2.3l23.1,81C561.1,220.6,564.6,222.9,572.5,222.9"/>
<path class="st0" d="M444.5,243.7c-7.5,0-10.5,2.2-10.5,2.2l-10.3,17.6c-3.6,6.1-5.3,12.7-5.5,13.6c-0.2-0.9-2.1-7.6-5.5-13.6
	l-10-17.6c0,0-3.3-2.2-10.5-2.2c-8.4,0-12.1,2.8-12.1,2.8l27.1,46.4v34.1c0,0,3.2,2.3,11.1,2.3c8.1,0,11.3-2.3,11.3-2.3v-33.8
	l27.1-46.8C456.5,246.5,452.9,243.7,444.5,243.7"/>
<path class="st0" d="M497.5,259.5c12.2,0,18.8,11.1,18.8,27.2c0,16-6.6,27-18.8,27c-12.2,0-18.8-11-18.8-27
	C478.7,270.7,485.3,259.5,497.5,259.5 M497.5,330.3c28.8,0,41.5-16.9,41.5-43.6c0-26.7-12.7-43.8-41.5-43.8
	c-28.9,0-41.5,17.1-41.5,43.8C456,313.4,468.6,330.3,497.5,330.3"/>
<path class="st0" d="M579.9,281.6h-6.1v-21.3c0,0,2.7-0.7,6.4-0.7c7.8,0,12.1,4.8,12.1,11C592.2,275.3,588.8,281.6,579.9,281.6
	 M614.8,269.8c0-17.1-11.9-26.9-37.5-26.9c-16.9,0-26.1,4.3-26.1,4.3v79.9c0,0,3.2,2.3,11.1,2.3c8.1,0,11.4-2.3,11.4-2.3v-29h2.9
	c2.1,0,3.3,1.3,4.2,3.2l14.9,26.1c0,0,4.6,2.1,10.5,2.1c4.5,0,11.3-1.2,13.7-2.8l-19.8-32.9C601.8,293.5,614.8,286.7,614.8,269.8"/>
<path class="st0" d="M640.2,243.7c-8.1,0-11.4,2.3-11.4,2.3v81c0,0,3.3,2.3,11.4,2.3c8.1,0,11.1-2.3,11.1-2.3v-39.2l29,39.4
	c0,0,3.3,2.1,11.3,2.1c9.3,0,15.1-2.9,15.1-2.9l-30.6-42.3l27.4-37.3c0,0-3.7-3-12.9-3c-8,0-11.3,2.2-11.3,2.2l-28,38.2v-38.1
	C651.4,246.1,648.2,243.7,640.2,243.7"/>
<path class="st0" d="M418.5,420.2c-11.9,0-23.5-5.6-27.4-8.6c-4.6,2.3-7.7,9.5-6.5,15.3c3.9,3.9,14.7,9.8,32.2,9.8
	c25,0,35.3-12,35.3-27.5c0-13.4-7.8-19.8-20.4-24l-11.8-3.8c-9.4-3.1-13-4.4-13-8.3c0-4.2,4.3-7.1,12-7.1c7.6,0,14.8,2.7,19.3,5.8
	c4.7-1.6,8.8-7.8,7.2-15.7c-4.7-2.9-12.9-6.7-26.9-6.7c-22.2,0-34.1,9.8-34.1,27.4c0,12.4,8,20,18.5,23.3l19.7,6c4.9,1.6,7,3.7,7,7
	C429.6,417.7,425.7,420.2,418.5,420.2"/>
<path class="st0" d="M491.5,435.9c8,0,11.1-2.3,11.1-2.3v-66.7h22c0,0,2.3-2.6,2.3-8.3c0-5.8-2.3-8.3-2.3-8.3h-66.5
	c0,0-2.3,2.7-2.3,8.3c0,5.9,2.3,8.3,2.3,8.3H480v66.7C480,433.6,483.3,435.9,491.5,435.9"/>
<path class="st0" d="M552.7,403.2l6-14.7c1.1-2.9,2.9-8.9,3.2-9.5c0.1,0.6,1.7,6.6,3,9.5l6.1,14.7H552.7z M561.9,350.2
	c-8,0-11,2.2-11,2.2l-33.1,80.8c0,0,3.6,2.7,11.9,2.7c7.6,0,10.8-2.2,10.8-2.2l5.6-14.1h31.5l6,14.1c0,0,3,2.2,10.8,2.2
	c8.3,0,11.6-2.7,11.6-2.7l-33.1-80.8C572.9,352.4,569.8,350.2,561.9,350.2"/>
<path class="st0" d="M599.2,350.2c0,0-2.3,2.7-2.3,8.3c0,5.9,2.3,8.3,2.3,8.3H621v66.7c0,0,3.3,2.3,11.5,2.3c8,0,11.1-2.3,11.1-2.3
	v-66.7h22c0,0,2.3-2.6,2.3-8.3c0-5.8-2.3-8.3-2.3-8.3H599.2z"/>
<path class="st0" d="M700.9,419.4v-20.7h21.4c0,0,2.3-2.4,2.3-8.3c0-5.6-2.3-8.3-2.3-8.3h-21.4v-15.2h28.5c0,0,2.4-2.7,2.4-8.3
	c0-5.8-2.4-8.3-2.4-8.3h-51.2v85.7h53.6c0,0,2.3-2.6,2.3-8.3c0-5.6-2.3-8.2-2.3-8.2H700.9z"/>
<path class="st1" d="M516.3,523.1c-4.9,1.5-9.8,3.1-14.7,4.5c-2.2,0.6-4.3,1.2-6.5,1.7c-4.2,1.1-7.7,3-11.1,4.9
	c-2.5,1.4-4.8,2.7-7.1,3.4c-4.8,1.6-9.9,2.4-16.5,2.7c-4.6,0.2-8.3,1.8-11.2,3.2c-1.2,0.5-2.9,1.3-3.3,1.4
	c-4.9-1.6-11.7,0.4-21.4,3.8c-2.5,0.8-4.9,1.7-6.3,2c-6.6,1.5-13.4,2.8-20,4l-4.8,0.9c-1.4,0.3-2.8,0.5-4.3,0.8
	c0.4-1.6,0.5-3.5,0-5.8c-0.2-0.8-0.2-1.7,0-3.3c0.1-0.5,0.3-1.2,0.5-2c0.2-0.7,0.5-1.5,0.6-2.3c0.2-0.7,0.3-1.3,0.5-2
	c0.5,0.8,1.1,1.5,1.9,2c2.1,1.4,4.7,1.4,6.8,0.1c7.1-4.6,15.7-8.3,26.2-11.3c11.8-3.3,24.2-4.8,40.5-4.8c9.9,0,18.1-2.9,26-5.8
	c5.4-1.9,10.6-3.8,16.1-4.6c0.6-0.1,0.9-0.1,0.9-0.1c0.3,0.2,0.5,0.4,0.8,0.6c1.1,0.9,2.8,2.2,5.5,3.2c1.8,0.7,3.5,1.1,5.2,1.4
	L516.3,523.1z M543.6,509.4c-4.6-1.2-9.2-0.7-13.2-0.3c-4,0.4-7.4,0.8-10.3-0.4c-1-0.4-1.7-0.9-2.5-1.5c-2.5-1.9-5.4-3.8-11.1-2.9
	c-6.7,1-12.6,3.1-18.4,5.2c-7.3,2.6-14.1,5-21.9,5c-17.4,0-31,1.6-43.9,5.3c-3.4,1-6.6,2-9.7,3.1c0.2-0.5,0.3-1.1,0.4-1.7
	c0.6-3.9-1.1-7.1-2.6-9.6c11-6.1,15.2-9.2,16.2-13.3c0.5-1.9,0.1-3.9-1-5.5c-4.8-6.9-3.3-18.9-2-29.5c0.5-3.7,0.9-7.1,1.1-10.4
	c0.2-3.4-2.4-6.4-5.8-6.6c-3.5-0.2-6.4,2.4-6.6,5.8c-0.2,2.9-0.6,6.2-1,9.7c-1.4,11.2-2.9,23.7,1.7,33.9c-3.1,2.1-8.3,4.9-10.3,6
	c-1.5,0.8-2.6,1.4-3.1,1.7c-1.4,0.9-2.4,2.2-2.7,3.8c-1,4.1,1.1,7.6,2.6,10.2c0.4,0.6,0.9,1.6,1.2,2.1c-0.3,0.6-1.2,1.5-2.4,2.6
	c-1.3,1.2-2.7,2.5-3.9,4.2c-0.7,0.9-1.3,1.9-1.8,2.9c0.3-3.6,0.6-7.7-3.1-12.2c-3.3-4.2-7.7-6.5-11.6-8.5c-1.3-0.7-2.5-1.3-3.7-2
	c-9-5.5-17.9-11-26.9-16.4l-3.2-1.9c-0.9-0.5-2.4-1.4-4.3-2.3c-2.7-1.4-9.4-4.9-11.3-6.7c-0.8-2.7-2.9-7.8-5.9-10.1
	c-2.8-2.1-6.1-2.4-8.7-2.6c-2.1-0.2-3.5-0.3-4.1-1c-0.9-0.9-1.7-1.7-2.5-2.5c-4.9-5-6.9-7-7.3-14.3c-0.1-1.3,0-2.7,0-4
	c0.1-5.9,0.2-13.2-5.6-19c-2.7-2.8-6-4.1-8.6-5.1c-1.6-0.7-3.1-1.2-4-2c-0.3-0.3-0.7-0.8-1.1-1.3c-1.9-2.1-4.7-5.3-8.8-6.7
	c-9.4-3.3-20.1-3.6-30.3-3.6l-313.5-0.2c-2.7,0-5,0.3-6.9,0.5c-0.5,0.1-1,0.1-1.6,0.2c0-0.5-0.1-1-0.1-1.7l0-19.5
	c1.7-1.3,5.1-2.8,7-3.6c2.4-1.1,4.7-2.1,6.6-3.4c3.7-2.4,6.6-5.3,9.5-8.2c1.8-1.8,3.5-3.4,5.2-4.9c2.1-1.7,4.9-3.2,7.8-4.7
	c3.3-1.7,6.8-3.6,9.7-6c3.1-2.6,4.9-5.8,6.4-8.7c1-1.8,1.9-3.5,2.9-4.5c1.2-1.2,3.3-2.4,5.3-3.5c5.5-3.1,15.8-8.9,10.4-21.7
	c-0.5-1.3-1-2.3-1.5-3.3c-1.5-3.2-1.8-3.8-1.3-7.1c0.1-0.6,0.2-1.1,0.3-1.7c0.8-4.3,2.4-13.1-6.4-17.7c-1.5-0.8-3-1.2-4.3-1.4
	c0.3-3.4,0-5.9-0.2-7.6c0.5-0.2,1.1-0.5,2.1-0.9c22.4-8.9,40.3-12,56.2-9.7c3.2,0.4,6.1-0.1,8.4-0.6c1.8-0.4,3.3-0.7,4.5-0.5
	l19.3,3.7c6.3,1.2,7.8,1.9,11.6,5.4c8.6,7.9,16.3,5.1,22,3.1c2.3-0.8,4.4-1.6,6.8-1.9c4.5-0.6,9.1-0.2,14,0.3c2.6,0.3,5.3,0.5,8,0.6
	c5.1,0.2,10-1.6,14.3-3.1c1.3-0.5,2.5-0.9,3.8-1.3c2.2-0.7,4.6-1,7.1-1.4c1.7-0.3,3.5-0.5,5.3-0.9c5.1-1.1,7-4.5,8.2-6.5
	c0.2-0.4,0.5-0.8,0.8-1.2c1.2-1.6,3.5-3,5.8-4.4l1.4-0.8c3.8-2.3,7.4-4.7,10.5-7.9c0.5-0.2,2.5-0.1,3.6-0.1c2.7,0.1,6.1,0.3,9.4-1.1
	c12.3-5.4,8.2-19.8,6-27.5c-0.6-2.1-1.3-4.5-1.3-5.6c-0.1-2,1.4-4,3.8-7.2c2.9-3.7,6.6-8.4,6.5-15c-0.2-5.5-3.6-13.5-10.9-14.1
	c-2.5-0.2-4.7,0.7-6.2,1.4c-0.4-0.8-0.6-1.8-0.7-2.5c0.9-1,3.5-2.7,4.6-3.4c0.6-0.4,1.1-0.7,1.5-1c2.5-1.7,5.2-3.1,8.2-4.7
	c4.7-2.5,9.6-5.1,13.8-8.8c1.4-1.3,2.8-2.5,4.1-3.7c2.7-2.5,5.3-4.9,8.2-6.9c4.1-2.7,4.7-7.7,5.3-11.7c0.1-1,0.3-2.4,0.5-2.8
	c2.2-5.5,9.2-11.1,15.5-16.1c2.6-2.1,5.1-4.1,7.3-6.1c1.2-1.1,2.4-2.2,3.5-3.3c5.3-4.9,10.2-9.6,16.1-13.2c4.7-2.9,11.7-7,17.5-9.2
	c6.5-2.5,8.7-2.3,16.7-1.9l1.6,0.1c16.3,0.9,33,0.5,49.2,0.1c7.9-0.2,15.8-0.4,23.6-0.4c2.8,0,6.4-0.5,10.2-0.9
	c6.5-0.8,18.7-2.3,21.8,0.4c0.2,0.1,0.5,0.4,0.6,1.4c-0.1,0.3-0.6,1.2-0.9,1.7c-1,1.9-2.5,4.4-2.5,7.8c0,3.7,1.7,6.2,2.7,7.7
	c0.2,0.3,0.5,0.6,0.5,0.6c-0.3,1.5-0.7,3.1-1.2,4.7c-0.8,3-1.8,6.5-1.9,9.9c-0.1,3.4,2.6,6.3,6,6.4c3.4,0.2,6.3-2.6,6.4-6
	c0.1-2,0.8-4.6,1.5-7.1c0.6-2,1.1-3.9,1.4-5.8c0.9-4.8-1.3-8-2.4-9.7c-0.2-0.4-0.6-0.9-0.6-0.8c0.1-0.3,0.6-1.2,0.9-1.8
	c1-1.9,2.5-4.5,2.4-7.9c-0.1-4.3-1.8-8-4.8-10.6c-7.3-6.3-20.1-4.7-31.4-3.3c-3.4,0.4-6.6,0.8-8.8,0.8c-7.9,0.1-15.9,0.3-23.8,0.5
	c-15.9,0.4-32.4,0.8-48.2-0.1l-1.6-0.1c-8.5-0.5-12.8-0.7-21.8,2.6c-6.8,2.6-14.1,6.8-19.7,10.3c-6.9,4.3-12.6,9.6-18.1,14.7
	c-1.1,1.1-2.3,2.1-3.4,3.2c-1.8,1.7-4.2,3.5-6.6,5.5c-7.4,5.9-15.8,12.6-19.2,21.2c-0.7,1.8-1,3.8-1.3,5.8c-0.1,1-0.3,2.7-0.6,3.5
	c-3.4,2.4-6.2,5-9,7.6c-1.2,1.1-2.5,2.3-3.8,3.5c-3.2,2.8-7.2,4.9-11.5,7.2c-3.1,1.6-6.2,3.3-9.2,5.3l-1.3,0.8
	c-3.5,2.2-8.3,5.3-9.9,10c-1.9,5.7,1.5,15.7,7.7,18.6c3.8,1.8,7.2,0.5,9.3-0.5c0.2,0.5,0.3,1,0.3,1.4c0.1,1.9-1.4,3.9-3.8,7
	c-3,3.9-6.8,8.7-6.4,15.6c0.1,2.4,0.9,5.1,1.8,8.2c1.3,4.4,3.4,11.7,1,12.8c-0.6,0.2-2.4,0.1-3.7,0.1c-3.6-0.2-8.9-0.5-13,3.7
	c-2.2,2.3-5.1,4.1-8.3,6.1l-1.3,0.8c-3,1.8-6.7,4.1-9.4,7.7c-0.6,0.8-1.1,1.7-1.5,2.4c-0.1,0.2-0.2,0.4-0.3,0.6
	c-1.4,0.3-2.8,0.5-4.2,0.7c-2.8,0.4-5.8,0.9-8.9,1.8c-1.4,0.5-2.9,1-4.3,1.5c-3.4,1.2-6.8,2.5-9.5,2.4c-2.4-0.1-4.9-0.3-7.3-0.6
	c-5.4-0.5-10.9-1-16.8-0.2c-3.6,0.5-6.6,1.5-9.3,2.5c-5.2,1.9-6.5,2.2-9.5-0.6c-5.9-5.4-9.8-6.9-17.7-8.4l-19.3-3.6
	c-3.5-0.7-6.6,0-9.2,0.5c-1.7,0.3-3.1,0.6-4.2,0.5c-18.1-2.7-38,0.7-62.6,10.4c-8.2,3.2-10.6,6.6-9.8,13.6c0.2,1.7,0.4,3.6,0,6.5
	c-0.4,2.9-0.5,6.6,2,9.4c2.5,2.8,5.8,2.7,7.6,2.7c0.6,0,1.3,0,1.5,0.1c0.3,0.1,0.4,0.2,0.4,0.2c0.3,0.7-0.2,3-0.4,4.3
	c-0.1,0.7-0.2,1.4-0.4,2.1c-1,6.9,0.5,10.3,2.3,14.2c0.4,0.8,0.8,1.8,1.3,2.8c1,2.3,1.1,2.7-5,6.2c-2.7,1.5-5.7,3.2-8.1,5.7
	c-2.2,2.3-3.7,4.9-4.9,7.3c-1.2,2.1-2.2,4-3.5,5.1c-1.9,1.6-4.6,3-7.5,4.5c-3.4,1.8-6.8,3.6-9.8,6.1c-2.2,1.8-4.2,3.7-6.1,5.6
	c-2.5,2.5-5,4.9-7.6,6.7c-1,0.7-3,1.5-4.8,2.3c-5,2.2-10.6,4.7-13.5,9.3c-0.6,1-0.9,2.1-0.9,3.3l0,21.9c0,4.1,0.5,8.7,3.8,11.7
	c3.5,3.1,7.8,2.6,11.6,2.2c1.7-0.2,3.5-0.4,5.4-0.4l313.5,0.2c9.5,0,18.6,0.2,26.2,2.9c1,0.3,2.5,2.1,3.5,3.2c0.9,1.1,1.8,2,2.5,2.6
	c2.4,2,5,3,7.3,4c1.9,0.7,3.5,1.4,4.4,2.3c2,2,2.1,5.2,2,10.1c0,1.6,0,3.2,0,4.8c0.6,12,5.3,16.8,10.8,22.4c0.7,0.7,1.5,1.5,2.3,2.4
	c3.9,4.1,8.8,4.5,12.1,4.8c0.7,0.1,1.7,0.1,2.1,0.2c0.6,0.9,1.4,2.8,1.6,3.6c1.1,5.4,7.6,9.1,17.6,14.2c1.5,0.8,2.8,1.4,3.5,1.9
	l3.1,1.9c9,5.5,17.9,11,26.9,16.4c1.4,0.8,2.9,1.6,4.4,2.4c3.1,1.6,6,3.2,7.7,5.3c0.6,0.7,0.6,0.8,0.3,4c-0.3,3.6-0.9,7.3-1.9,11.2
	c-0.1,0.5-0.3,1-0.4,1.5c-0.3,1.1-0.8,2.5-1,4.2c-0.2,2-0.4,4.2,0.1,6.8c-0.6,0.4-1.4,1-2.2,1.8c-0.7,0.7-1.3,1.6-1.8,2.4l-0.6,0.8
	c-1.7,2.5-2.4,5.2-1.8,7.7c0.5,2.1,1.8,3.9,3.8,4.9c1.3,0.7,2.6,0.9,3.9,0.9c1.8,0,3.4-0.5,4.6-0.9l0.5-0.1
	c4.1-0.9,8.2-1.7,12.4-2.5l4.7-0.9c6.8-1.2,13.8-2.5,20.7-4.1c2-0.5,4.5-1.3,7.5-2.3c3.7-1.3,11.5-3.9,13.5-3.7
	c4.7,1.5,8.9-0.3,12.2-1.9c2.3-1,4.4-2,6.6-2.1c7.7-0.3,13.8-1.3,19.8-3.3c3.5-1.1,6.4-2.8,9.3-4.4c2.8-1.6,5.5-3.1,8.1-3.7
	c2.3-0.6,4.5-1.2,6.8-1.9c5.1-1.4,10.1-3,15.1-4.6l6.6-2.1c7-2.2,21.5-6.6,21.6-17.4C548.3,512.6,546.4,510.1,543.6,509.4"/>
<path class="st1" d="M525.5,540.7c0,0-0.2,0.2-0.2,0.6c0,0.5,0.2,0.7,0.2,0.7h3.4v10.2c0,0,0.3,0.2,0.9,0.2c0.6,0,0.9-0.2,0.9-0.2
	V542h3.4c0,0,0.2-0.2,0.2-0.7c0-0.4-0.2-0.6-0.2-0.6H525.5z"/>
<path class="st1" d="M545.7,540.7c-0.7,0-0.9,0.2-0.9,0.2l-3,7.6c-0.1,0.4-0.4,1.2-0.4,1.3l-0.4-1.3l-3-7.6c0,0-0.2-0.2-0.9-0.2
	c-0.6,0-0.9,0.2-0.9,0.2l-0.9,11.3c0,0,0.3,0.2,0.9,0.2c0.6,0,0.9-0.2,0.9-0.2l0.5-6.9c0-0.3,0.1-1.2,0.1-1.2c0,0.1,0.3,0.8,0.4,1.2
	l2.6,6.5c0.1,0.1,0.5,0.2,0.7,0.2c0.4,0,0.6-0.1,0.8-0.2l2.6-6.5c0.1-0.3,0.4-1.1,0.4-1.2l0.1,1.2l0.5,6.9c0,0,0.2,0.2,0.9,0.2
	c0.7,0,0.9-0.2,0.9-0.2l-0.9-11.3C546.6,540.9,546.3,540.7,545.7,540.7"/>
</svg>
