<?xml version="1.0" encoding="utf-8"?>
<!-- Generator: Adobe Illustrator 16.0.0, SVG Export Plug-In . SVG Version: 6.00 Build 0)  -->
<!DOCTYPE svg PUBLIC "-//W3C//DTD SVG 1.1//EN" "http://www.w3.org/Graphics/SVG/1.1/DTD/svg11.dtd">
<svg version="1.1" id="Layer_1" xmlns="http://www.w3.org/2000/svg" xmlns:xlink="http://www.w3.org/1999/xlink" x="0px" y="0px"
	 width="280px" height="56px" viewBox="0 0 280 56" enable-background="new 0 0 280 56" xml:space="preserve">
<g>
	<path fill="#282C67" d="M79.962,29.627l-3.69-8.808l-3.668,8.808h-3.119l5.249-12.673V9.815h3.075v7.138l5.271,12.673H79.962z
		 M85.058,30.615V19.853H81.17v-2.526h3.888V9.793h3.075v20.822H85.058z"/>
	<path fill="#282C67" d="M94.833,30.967v-5.337h12.783v-1.098H94.833v-2.043h6.413v-1.537h-7.885v-2.372h18.823v2.372h-7.863v1.537
		h6.392v5.206H97.93v1.208h5.118c2.79,0,5.447,0.022,8.061-0.308v2.065c-2.592,0.308-6.193,0.308-8.258,0.308H94.833z
		 M98.106,17.525c-2.394,0-4.042-1.647-4.042-3.888s1.647-3.976,4.042-3.976h9.291c2.394,0,4.085,1.735,4.085,3.954
		c0,2.24-1.691,3.91-4.085,3.91H98.106z M105.969,15.131c1.208,0,2.591,0.087,2.591-1.516c0-1.647-1.318-1.56-2.591-1.56h-6.545
		c-1.274,0-2.394-0.088-2.394,1.56c0,1.603,1.098,1.516,2.394,1.516H105.969z"/>
	<path fill="#282C67" d="M116.755,9.947h8.566v2.548h-5.469v14.21c1.867-0.088,4.502-0.461,6.26-1.318v2.57
		c-1.911,0.834-5.93,1.384-8.302,1.384h-1.054V9.947z M126.946,30.594v-20.8h2.987v7.555h1.955V9.793h2.987v20.8h-2.987V19.853
		h-1.955v10.741H126.946z"/>
	<path fill="#282C67" d="M139.357,9.947h10.959v5.535c0,6.304-3.359,11.224-6.018,14.145h-3.822
		c3.449-3.581,6.765-8.325,6.765-13.793v-3.316h-7.885V9.947z M154.007,30.594v-20.8h3.075v20.8H154.007z"/>
	<path fill="#282C67" d="M177.158,17.547l-5.315-4.107l-5.337,4.107h-4.129l7.885-6.326V9.398h3.141v1.823l7.885,6.326H177.158z
		 M163.893,30.967v-5.271h12.782v-1.098h-12.782v-2.021h6.413v-1.56h-7.886v-2.328h18.823v2.328h-7.862v1.56h6.391v5.161h-12.783
		v1.208h5.118c2.79,0,5.446,0,8.061-0.307v2.021c-2.592,0.308-6.193,0.308-8.259,0.308H163.893z"/>
	<path fill="#282C67" d="M185.418,9.947h12.212v2.548h-4.591V17.7l5.338,11.927h-3.098l-3.777-8.237l-3.8,8.237h-3.097l5.381-11.905
		v-5.227h-4.568V9.947z M200.133,30.594v-20.8h3.076v20.8H200.133z"/>
	<path fill="#282C67" d="M209.887,12.495V9.947h16.012v2.548h-6.479v1.559l7.973,6.941h-4.063l-5.447-4.568l-5.446,4.568h-4.086
		l7.973-6.919v-1.581H209.887z M216.344,31.076v-5.623h-7.775v-2.548h18.604v2.548h-7.752v5.623H216.344z"/>
	<path fill="#282C67" d="M239.825,24.949v1.933c2.218-0.22,4.37-0.593,5.843-1.099v2.592c-2.746,0.879-7.49,1.296-11.465,1.296
		h-2.855v-2.548h3.053c0.769,0,1.559-0.022,2.35-0.043v-2.13h-0.417c-2.196,0-3.821-1.889-3.821-4.173
		c0-2.262,1.625-4.261,3.821-4.261h4.041c2.196,0,3.844,1.977,3.844,4.239c0,2.174-1.647,4.195-3.844,4.195H239.825z M231.61,13.066
		h13.179v2.46H231.61V13.066z M234.378,9.552h7.753v2.372h-7.753V9.552z M239.913,22.664c0.856,0,1.405-0.9,1.405-1.911
		c0-1.077-0.482-1.911-1.405-1.911h-2.987c-0.922,0-1.449,0.834-1.449,1.911c0,1.054,0.527,1.911,1.449,1.911H239.913z
		 M246.568,30.594v-20.8h3.074v20.8H246.568z"/>
	<path fill="#282C67" d="M264.053,29.627l-3.689-8.808l-3.668,8.808h-3.119l5.249-12.673V9.815h3.075v7.138l5.271,12.673H264.053z
		 M268.467,30.615V9.793h3.053v7.402h2.855v2.503h-2.855v10.917H268.467z"/>
</g>
<g>
	<path fill="#282C67" d="M74.601,39.677c-1.477,0-2.063,0.637-2.063,1.49c0,0.903,0.738,1.452,2.546,2.126
		c2.05,0.765,2.789,1.58,2.789,2.916c0,1.503-1.095,2.471-3.209,2.471c-1.248,0-2.521-0.496-3.298-1.35
		c-0.318-0.344,0.102-0.84,0.497-0.535c0.815,0.65,1.847,1.082,2.738,1.082c1.528,0,2.331-0.688,2.331-1.668
		c0-0.865-0.471-1.489-2.776-2.355c-1.732-0.649-2.56-1.477-2.56-2.687c0-1.351,0.955-2.292,2.941-2.292
		c0.98,0,2.101,0.305,2.954,0.827c0.395,0.242,0.051,0.866-0.369,0.624C76.447,39.944,75.479,39.677,74.601,39.677z"/>
	<path fill="#282C67" d="M80.764,48.527c-0.573,0-0.93-0.28-0.93-0.828v-8.672h6.176v0.803h-5.234v3.425h5.106v0.776h-5.106v3.439
		c0,0.178,0.077,0.254,0.255,0.254h5.183v0.803H80.764z"/>
	<path fill="#282C67" d="M92.149,48.68c-2.649,0-4.534-1.923-4.534-4.902c0-2.98,1.885-4.902,4.534-4.902
		c2.648,0,4.533,1.922,4.533,4.902C96.682,46.757,94.797,48.68,92.149,48.68z M92.149,47.877c2.05,0,3.591-1.68,3.591-4.1
		s-1.541-4.101-3.591-4.101c-2.05,0-3.591,1.681-3.591,4.101S90.099,47.877,92.149,47.877z"/>
	<path fill="#282C67" d="M105.94,39.027v6.163c0,2.127-1.362,3.489-3.68,3.489c-2.317,0-3.68-1.362-3.68-3.489v-6.163h0.942v6.163
		c0,1.681,1.133,2.687,2.738,2.687s2.738-1.006,2.738-2.687v-6.163H105.94z"/>
	<path fill="#282C67" d="M109.264,48.527c-0.573,0-0.93-0.28-0.93-0.828v-8.672h0.942v8.443c0,0.178,0.076,0.254,0.254,0.254h4.432
		v0.803H109.264z"/>
	<path fill="#282C67" d="M126.111,39.83h-3.247v8.697h-0.942V39.83h-3.247v-0.803h7.437V39.83z"/>
	<path fill="#282C67" d="M128.684,48.527c-0.573,0-0.93-0.28-0.93-0.828v-8.672h6.176v0.803h-5.233v3.425h5.106v0.776h-5.106v3.439
		c0,0.178,0.076,0.254,0.254,0.254h5.183v0.803H128.684z"/>
	<path fill="#282C67" d="M143.111,47.215c0.42-0.203,0.727,0.383,0.344,0.625c-0.827,0.509-1.974,0.84-3.208,0.84
		c-2.624,0-4.711-1.795-4.711-4.902s2.063-4.902,4.711-4.902c1.159,0,2.241,0.242,3.017,0.688c0.383,0.217,0.103,0.828-0.317,0.637
		c-0.7-0.318-1.669-0.522-2.7-0.522c-2.05,0-3.77,1.604-3.77,4.101s1.745,4.1,3.77,4.1
		C141.316,47.877,142.322,47.598,143.111,47.215z"/>
	<path fill="#282C67" d="M146.346,43.268h5.298v-4.24h0.942v9.5h-0.942V44.07h-5.298v4.457h-0.941v-9.5h0.941V43.268z"/>
	<path fill="#282C67" d="M161.36,39.027h0.942v9.5h-0.994l-4.698-7.093l-0.649-1.134l0.025,1.134v7.093h-0.942v-9.5h0.993
		l4.699,7.094l0.649,1.133l-0.025-1.133V39.027z"/>
	<path fill="#282C67" d="M168.797,48.68c-2.648,0-4.533-1.923-4.533-4.902c0-2.98,1.885-4.902,4.533-4.902s4.533,1.922,4.533,4.902
		C173.33,46.757,171.445,48.68,168.797,48.68z M168.797,47.877c2.051,0,3.591-1.68,3.591-4.1s-1.54-4.101-3.591-4.101
		c-2.05,0-3.591,1.681-3.591,4.101S166.747,47.877,168.797,47.877z"/>
	<path fill="#282C67" d="M180.118,43.268h5.297v-4.24h0.942v9.5h-0.942V44.07h-5.297v4.457h-0.942v-9.5h0.942V43.268z"/>
	<path fill="#282C67" d="M192.853,48.68c-2.649,0-4.533-1.923-4.533-4.902c0-2.98,1.884-4.902,4.533-4.902
		c2.648,0,4.533,1.922,4.533,4.902C197.386,46.757,195.501,48.68,192.853,48.68z M192.853,47.877c2.05,0,3.591-1.68,3.591-4.1
		s-1.541-4.101-3.591-4.101s-3.591,1.681-3.591,4.101S190.803,47.877,192.853,47.877z"/>
	<path fill="#282C67" d="M200.277,48.527c-0.574,0-0.931-0.28-0.931-0.828v-8.672h0.942v8.443c0,0.178,0.076,0.254,0.255,0.254
		h4.432v0.803H200.277z"/>
	<path fill="#282C67" d="M207.548,48.527c-0.573,0-0.93-0.28-0.93-0.828v-8.672h3.082c2.788,0,4.661,1.693,4.661,4.763
		c0,3.056-1.873,4.737-4.661,4.737H207.548z M207.561,47.471c0,0.178,0.076,0.254,0.255,0.254h1.885
		c2.165,0,3.718-1.362,3.718-3.947c0-2.572-1.553-3.947-3.718-3.947h-2.14V47.471z"/>
	<path fill="#282C67" d="M217.392,48.527h-0.942v-9.5h0.942V48.527z"/>
	<path fill="#282C67" d="M226.293,39.027h0.942v9.5h-0.993l-4.699-7.093l-0.649-1.134l0.025,1.134v7.093h-0.942v-9.5h0.994
		l4.698,7.094l0.649,1.133l-0.025-1.133V39.027z"/>
	<path fill="#282C67" d="M230.139,43.777c0,2.432,1.732,4.1,3.77,4.1c1.031,0,1.936-0.267,2.471-0.547v-3.107h-2.713v-0.802h3.654
		v4.354c-0.814,0.535-2.024,0.904-3.412,0.904c-2.637,0-4.711-1.859-4.711-4.902s2.074-4.902,4.711-4.902
		c1.184,0,2.164,0.254,3.018,0.713c0.383,0.203,0.115,0.803-0.305,0.611c-0.701-0.318-1.707-0.522-2.713-0.522
		C231.871,39.677,230.139,41.346,230.139,43.777z"/>
	<path fill="#282C67" d="M242.377,39.677c-1.478,0-2.063,0.637-2.063,1.49c0,0.903,0.738,1.452,2.546,2.126
		c2.05,0.765,2.789,1.58,2.789,2.916c0,1.503-1.095,2.471-3.209,2.471c-1.248,0-2.521-0.496-3.298-1.35
		c-0.318-0.344,0.102-0.84,0.496-0.535c0.814,0.65,1.847,1.082,2.738,1.082c1.527,0,2.33-0.688,2.33-1.668
		c0-0.865-0.471-1.489-2.775-2.355c-1.732-0.649-2.561-1.477-2.561-2.687c0-1.351,0.955-2.292,2.941-2.292
		c0.98,0,2.102,0.305,2.955,0.827c0.395,0.242,0.051,0.866-0.369,0.624C244.223,39.944,243.256,39.677,242.377,39.677z"/>
	<path fill="#282C67" d="M247.051,48.336c0-0.459,0.344-0.803,0.802-0.803s0.802,0.344,0.802,0.803v0.127
		c0,0.893-0.42,1.771-1.082,2.369c-0.217,0.203-0.521-0.102-0.331-0.318c0.369-0.42,0.586-0.892,0.611-1.375
		C247.395,49.139,247.051,48.795,247.051,48.336z"/>
	<path fill="#282C67" d="M256.143,48.527H255.2v-9.5h0.942V48.527z"/>
	<path fill="#282C67" d="M264.496,44.35v4.178h-0.917V44.35c0-1.272-0.827-2.023-1.999-2.023c-1.146,0-2,0.713-2,1.936v4.266h-0.916
		v-6.852h0.853l0.052,0.764c0.496-0.585,1.26-0.916,2.139-0.916C263.324,41.523,264.496,42.605,264.496,44.35z"/>
	<path fill="#282C67" d="M266.266,45.102c0-2.203,1.465-3.578,3.527-3.578c0.956,0,1.758,0.255,2.268,0.599
		c0.407,0.28,0.051,0.815-0.332,0.636c-0.61-0.279-1.234-0.432-1.936-0.432c-1.438,0-2.609,1.057-2.609,2.775
		s1.172,2.775,2.609,2.775c0.739,0,1.439-0.178,2.102-0.509c0.434-0.216,0.777,0.37,0.357,0.637
		c-0.637,0.395-1.414,0.675-2.459,0.675C267.73,48.68,266.266,47.305,266.266,45.102z"/>
	<path fill="#282C67" d="M274.391,47.533c0.459,0,0.803,0.357,0.803,0.803s-0.344,0.803-0.803,0.803
		c-0.458,0-0.803-0.357-0.803-0.803S273.933,47.533,274.391,47.533z"/>
</g>
<path fill="#282C67" d="M34.738,8.081c-0.808-1.833-3.525-0.575-3.525-0.575C33.499,8.982,34.738,8.081,34.738,8.081 M30.245,7.81
	c0.283,0,0.512-0.235,0.512-0.523c0-0.289-0.229-0.52-0.512-0.52c-0.285,0-0.517,0.231-0.517,0.52
	C29.729,7.575,29.96,7.81,30.245,7.81 M36.469,8.26c0,0-0.986-0.017-1.884,0.532l2.893,0.037c0.05-0.035,0.052-0.035,0.101-0.076
	c0,0-1.441-3.961-5.278-4.449C32.301,4.304,33.226,7.237,36.469,8.26 M38.501,9.03c0-0.216-0.171-0.389-0.382-0.389
	c-0.212,0-0.386,0.172-0.386,0.389c0,0.213,0.174,0.388,0.386,0.388C38.331,9.418,38.501,9.244,38.501,9.03 M23.04,8.829
	l2.897-0.037c-0.901-0.549-1.885-0.532-1.885-0.532c3.243-1.023,4.166-3.956,4.166-3.956c-3.835,0.488-5.277,4.449-5.277,4.449
	C22.992,8.794,22.993,8.794,23.04,8.829 M22.112,9.244c0,0.213,0.171,0.389,0.385,0.389c0.211,0,0.383-0.176,0.383-0.389
	c0-0.214-0.171-0.392-0.383-0.392C22.284,8.852,22.112,9.029,22.112,9.244 M22.35,12.376c-2.087-1.505-5.129-0.34-5.129-0.34
	c2.703-2.086,2.682-5.424,2.682-5.424c-3.438,1.788-3.462,6.013-3.462,6.013C20.651,13.893,22.35,12.376,22.35,12.376
	 M23.513,11.552l0.029-1.429c-1.566-0.467-3.151-0.167-3.151-0.167c3.019-1.577,3.571-4.867,3.571-4.867
	c-3.694,1.155-4.438,5.313-4.438,5.313C21.229,11.264,22.555,11.528,23.513,11.552 M40.182,9.724c0,0-1.255-0.387-2.84,0.162
	l-0.005,1.468c0.966-0.02,1.948-0.257,3.722-1.208c0,0-0.841-4.138-4.558-5.203C36.5,4.942,37.128,8.216,40.182,9.724 M25.78,8.255
	c0,0,1.271,0.85,3.504-0.71C29.284,7.545,26.521,6.392,25.78,8.255 M45.131,28.078h-1.616v2.074h1.616V28.078z M40.768,13.846
	l-0.833,1.01l4.52,4.589l0.917-0.929L40.768,13.846z M49.569,13.707l-4.145-4.205l-3.714,4.095l3.984,3.987L49.569,13.707z
	 M15.783,13.238c0,0.217,0.172,0.387,0.383,0.387c0.213,0,0.383-0.17,0.383-0.387c0-0.215-0.17-0.391-0.383-0.391
	C15.955,12.848,15.783,13.023,15.783,13.238 M46.465,17.672c0.714,0.205,1.591,0.357,2.663,0.401c0,0,0.485-1.469,0.273-3.254
	l-1.399,1.359c0.151,0.361,0.34,0.726,0.578,1.083c0,0-0.384-0.324-1.002-0.672L46.465,17.672z M45.212,38.239h-1.617v2.077h1.617
	V38.239z M42.856,11.318l0.939-0.965c-0.399-1.364-1.204-3.008-3.204-3.987C40.592,6.366,40.511,9.282,42.856,11.318 M51.272,25.856
	c0,0.216,0.171,0.389,0.382,0.389s0.384-0.173,0.384-0.389c0-0.215-0.172-0.39-0.384-0.39S51.272,25.641,51.272,25.856
	 M46.231,6.563c1.207,0.608,2.185-0.031,2.185-0.031c1.346-0.669,2.318,0.259,2.318,0.259c0.94,0.746,0.787,1.728,0.787,1.728
	c0,0.748-0.211,0.801-0.211,0.801c-0.449,0.313-0.338-0.214-0.338-0.214c0.015-0.007,0.104-0.37,0.104-0.37
	c0.176-1.696-1.326-1.943-1.326-1.943c-1.591-0.284-1.986,1.211-1.986,1.211c-0.103,0.41-0.114,0.777-0.065,1.099l-1.99-2.018
	l0.094,1.708l4.441,4.506h1.59l-1.614-1.636c0.853,0.27,1.599,0.297,1.599,0.297c2.266-0.14,2.506-2.339,2.506-2.339
	c0.597-2.301-1.551-4.159-1.551-4.159c-1.432-1.25-3.602-1.351-3.602-1.351c-3.083-0.362-4.175-2.362-4.175-2.362
	c-0.365,0.91-0.27,2.257-0.27,2.257C44.936,6.075,46.231,6.563,46.231,6.563 M51.817,25.218c0,0,2.583-3.312,0.999-6.892
	c0,0-2.069,2.597-1.243,5.938c0,0-1.66-2.836-4.217-2.986C47.356,21.278,47.75,23.54,51.817,25.218 M49.196,19.14
	c0.21,0,0.382-0.175,0.382-0.388c0-0.214-0.172-0.391-0.382-0.391c-0.213,0-0.385,0.176-0.385,0.391
	C48.811,18.965,48.983,19.14,49.196,19.14 M41.467,12.836l1.162-1.219c-0.989-0.233-2.847-0.568-4.351,0.57
	C38.278,12.188,39.053,13.075,41.467,12.836 M50.779,21.525c0,0,1.979-3.714-0.195-6.961c0,0-1.593,2.919-0.207,6.068
	c0,0-2.12-2.504-4.663-2.201C45.715,18.432,46.489,20.587,50.779,21.525 M37.218,49.918c0,0.215,0.171,0.391,0.384,0.391
	c0.212,0,0.384-0.176,0.384-0.391c0-0.217-0.172-0.389-0.384-0.389C37.389,49.529,37.218,49.701,37.218,49.918 M39.142,49.545
	c0,0,2.172-1.895,2.192-4.256l-0.778,0.029c-0.7,0.625-1.728,1.952-2.297,4.641c0,0,3.662,2.004,6.858-0.203
	C45.118,49.756,42.242,48.139,39.142,49.545 M35.562,50.761c0,0,2.796-1.685,2.943-4.28c0,0-2.228,0.4-3.883,4.527
	c0,0,3.263,2.622,6.792,1.014C41.414,52.021,38.856,49.926,35.562,50.761 M31.807,51.57c2.906-1.367,3.553-3.659,3.553-3.659
	c-2.261,0.165-4.201,3.605-4.201,3.605c2.531,2.618,5.813,2.296,5.813,2.296C35.466,51.791,31.807,51.57,31.807,51.57
	 M30.189,50.367v0.971c-0.441-0.706-2.167-3.266-4.114-3.395c0,0,0.663,2.292,3.578,3.637c0,0-3.658,0.247-5.151,2.277
	c0,0,3.189,0.295,5.688-2.229v1.582h0.97v-1.694v-1.149H30.189z M43.595,41.409v2.077l9.153,7.7h1.832l-9.319-9.777H43.595z
	 M42.461,47.719c0,0,0.832-1.007,1.242-2.43l-1.562-0.029c-0.246,0.775-0.434,1.763-0.481,3.018c0,0,3.373,1.139,6.073-0.846
	l-1.041-0.848C45.541,46.518,43.959,46.693,42.461,47.719 M24.301,50.07c0-0.215-0.172-0.39-0.383-0.39s-0.383,0.175-0.383,0.39
	s0.172,0.387,0.383,0.387S24.301,50.285,24.301,50.07 M49.891,39.2c0,0,0.527-3.256-1.335-5.032c0,0-1.134,1.984,0.917,5.924
	c0,0,4.08-0.852,5.129-4.629C54.603,35.463,51.375,36.103,49.891,39.2 M46.117,46.092l-1.35-1.116
	c0.029,0.35,0.071,0.72,0.137,1.112C44.903,46.088,45.388,46.148,46.117,46.092 M44.075,46.6c0.213,0,0.386-0.175,0.386-0.39
	c0-0.214-0.172-0.393-0.386-0.393c-0.211,0-0.382,0.179-0.382,0.393C43.693,46.425,43.864,46.6,44.075,46.6 M11.968,40.917
	c0,0.214,0.175,0.386,0.385,0.386c0.212,0,0.384-0.172,0.384-0.386s-0.171-0.39-0.384-0.39
	C12.143,40.527,11.968,40.703,11.968,40.917 M9.174,33.372c3.184-3.064,2.737-5.317,2.737-5.317
	c-2.326,1.081-2.856,4.339-2.856,4.339c-0.428-3.417-3.285-5.069-3.285-5.069C5.579,31.242,9.174,33.372,9.174,33.372 M9.184,33.91
	c0,0.215,0.17,0.393,0.383,0.393c0.211,0,0.383-0.178,0.383-0.393s-0.172-0.386-0.383-0.386C9.354,33.524,9.184,33.695,9.184,33.91
	 M14.65,9.574l-2.967-3.039C9.845,4.67,7.666,5.901,7.666,5.901l5.847,5.907C13.904,10.294,14.65,9.574,14.65,9.574 M12.368,11.441
	L7.322,6.317c0,0-2.112,1.535-0.472,5.125H12.368z M10.179,37.07c2.612-3.58,1.787-5.716,1.787-5.716
	C9.861,32.83,9.899,36.13,9.899,36.13c-1.009-3.293-4.105-4.415-4.105-4.415C6.275,35.607,10.179,37.07,10.179,37.07 M12.521,47.221
	c0,0,0.6-0.359,1.467-0.492l-0.962-0.23l-0.093,0.121c0.054-0.075,0.093-0.121,0.093-0.121l-4.263,4.553
	c0,0-0.485,0.711-0.028,1.172c0,0,0.43,0.357,1.021-0.053l4.154-3.685C13.491,48.268,12.573,47.492,12.521,47.221 M20.605,45.371
	l-0.546-0.003c-0.029,2.446,2.293,4.379,2.293,4.379c-3.132-1.331-5.971,0.351-5.971,0.351c3.249,2.129,6.862,0.035,6.862,0.035
	C22.539,47.154,21.305,45.881,20.605,45.371 M11.804,40.537c1.96-3.982,0.782-5.946,0.782-5.946
	c-1.822,1.826-1.219,5.068-1.219,5.068c-1.556-3.064-4.799-3.626-4.799-3.626C7.707,39.785,11.804,40.537,11.804,40.537
	 M22.918,46.666c0.207,2.592,3.038,4.21,3.038,4.21c-3.31-0.759-5.819,1.4-5.819,1.4c3.564,1.524,6.768-1.176,6.768-1.176
	C25.154,47.013,22.918,46.666,22.918,46.666 M13.788,15.364c4.361,0.504,5.773-1.292,5.773-1.292
	c-2.31-1.112-5.109,0.571-5.109,0.571c2.304-2.532,1.715-5.817,1.715-5.817C13.084,11.198,13.788,15.364,13.788,15.364
	 M13.996,43.664c1.246-4.27-0.248-5.989-0.248-5.989c-1.479,2.116-0.332,5.2-0.332,5.2c-2.059-2.737-5.346-2.721-5.346-2.721
	C9.833,43.645,13.996,43.664,13.996,43.664 M45.878,40.172c0,0-0.272,0.289-0.36,0.732l0.81,0.852
	C46.284,41.225,46.149,40.68,45.878,40.172 M18.755,23.076l1.496,1.341h3.37c-0.162-0.274-0.108-1.31-0.108-1.31L18.755,23.076z
	 M27.12,13.056v-1.911h5.868v2.734h1.939v1.965h-1.884v0.875h1.884v2.131h-1.884v6.393h-1.617l-2.235-2.268l-2.043,2.075l-1.481-1.5
	l3.39-3.444l1.751,1.776v-8.826H27.12z M24.104,22.217c0,4.539,2.801,6.628,6.255,6.628c3.458,0,6.262-2.081,6.262-6.628V9.291
	H24.106C24.106,9.291,24.104,17.688,24.104,22.217 M19.49,14.76c0,0-0.376,0.558-1.817,0.874l1.817,1.707V14.76z M35.494,33.633
	c0.41,0,0.41-0.311,0.416-0.635v-2.947h0.833v3.123c0,0.452-0.052,1.225-1.256,1.225c-0.777,0-1.243-0.366-1.243-1.168v-3.18h0.836
	v2.77C35.08,33.145,35.041,33.633,35.494,33.633 M37.644,35.265v0.799h-0.846v0.931h0.742v0.793h-0.742v0.967h0.856v0.797h-1.689
	v-4.286H37.644z M37.416,30.051h0.939l0.239,0.594c0.072,0.212,0.16,0.434,0.204,0.654h0.012c0.042-0.221,0.112-0.437,0.188-0.654
	l0.25-0.594h0.901l-0.901,2.073l0.97,2.209h-0.97l-0.267-0.681c-0.078-0.221-0.13-0.429-0.184-0.644h-0.011
	c-0.062,0.215-0.114,0.423-0.186,0.644l-0.246,0.681h-0.939l0.892-2.209L37.416,30.051z M39.956,39.551l-0.154-0.724h-0.849
	l-0.151,0.724h-0.828l0.979-4.286h0.878l1.015,4.286H39.956z M34.613,39.551l-0.202-3.088H34.4l-0.137,1.061l-0.358,2.027h-0.641
	l-0.41-2.055l-0.14-0.951v-0.082h-0.013l-0.124,3.088h-0.895l0.369-4.286h1.1l0.405,2.529h0.013l0.335-2.529h1.121l0.442,4.286
	H34.613z M31.908,30.051h0.833v3.486h0.872v0.796h-1.705V30.051z M30.834,29.39v14.532c0,0,0.81-0.818,1.938-0.818h8.883v-18.03
	h-4.79C36.866,25.074,35.505,29.324,30.834,29.39 M27.247,31.256c0-0.311-0.146-0.559-0.565-0.535H26.57v1.139l0.145,0.007
	C27.096,31.866,27.247,31.605,27.247,31.256 M39.368,36.367h-0.013l-0.089,0.647l-0.177,1.142h0.587l-0.215-1.142L39.368,36.367z
	 M16.891,17.277h0.003c-0.153,0.124-1.219,1.113-2.842,1.313l0.552,0.526l5.814-0.027l-1.805-1.831h-0.001l-0.914-0.93
	C17.698,16.33,17.051,17.168,16.891,17.277 M49.318,40.469c0-0.216-0.172-0.387-0.384-0.387c-0.213,0-0.384,0.171-0.384,0.387
	c0,0.218,0.17,0.389,0.384,0.389C49.146,40.857,49.318,40.687,49.318,40.469 M51.561,33.811c0.213,0,0.384-0.178,0.384-0.393
	c0-0.218-0.171-0.39-0.384-0.39c-0.211,0-0.384,0.172-0.384,0.39C51.176,33.633,51.349,33.811,51.561,33.811 M49.097,30.912
	c0,0-0.771,2.152,1.92,5.673c0,0,3.872-1.555,4.259-5.458c0,0-3.068,1.199-3.999,4.511C51.277,35.638,51.238,32.338,49.097,30.912
	 M52.03,31.883c0,0-0.604-3.245-2.953-4.27c0,0-0.394,2.262,2.86,5.25c0,0,3.546-2.215,3.26-6.129
	C55.198,26.734,52.382,28.459,52.03,31.883 M47.462,37.271c0,0-1.453,1.758-0.109,5.997c0,0,4.162-0.119,5.844-3.652
	c0,0-3.286,0.06-5.281,2.853C47.916,42.469,48.993,39.352,47.462,37.271 M52.13,28.051c0,0-1.149-3.087-3.64-3.68
	c0,0,0,2.293,3.718,4.666c0,0,3.11-2.808,2.16-6.612C54.368,22.425,51.889,24.616,52.13,28.051 M49.463,45.048
	c0.638-0.403,1.247-0.95,1.749-1.7c0,0-1.388-0.182-3.013,0.373L49.463,45.048z M25.229,36.992l-0.095-0.651h-0.01l-0.091,0.651
	l-0.178,1.139h0.59L25.229,36.992z M12.867,11.668c-2.63,2.875-1.224,6.853-1.224,6.853c4.381-0.27,5.464-2.287,5.464-2.287
	c-2.467-0.688-4.934,1.463-4.934,1.463C14.009,14.796,12.867,11.668,12.867,11.668 M29.304,46.082h2.527c0,0,0.163-1.113,0.88-1.113
	h10.487V26.241l-1.045-1.115v18.562h-9.39c0,0-1.262,0.109-2.251,1.334c0,0-0.768-1.172-2.416-1.281h-9.171V25.296l-1.126,1.141
	v18.532h10.241C28.039,44.969,29.304,45.021,29.304,46.082 M9.677,26.37c0-0.215-0.172-0.388-0.383-0.388
	c-0.213,0-0.383,0.173-0.383,0.388c0,0.216,0.17,0.391,0.383,0.391C9.505,26.761,9.677,26.586,9.677,26.37 M9.339,24.767
	c0.746-3.36-1.379-5.907-1.379-5.907c-1.506,3.617,1.157,6.868,1.157,6.868c4.027-1.775,4.365-4.047,4.365-4.047
	C10.93,21.892,9.339,24.767,9.339,24.767 M6.5,22.997c-0.861,3.825,2.313,6.555,2.313,6.555c3.662-2.458,3.608-4.75,3.608-4.75
	c-2.475,0.652-3.555,3.766-3.555,3.766C9.031,25.126,6.5,22.997,6.5,22.997 M10.675,15.367c0,0-0.22-1.389,1.209-3.462H7.067
	C7.067,11.905,7.27,12.472,10.675,15.367 M23.406,22.602v-0.535l-2.504-2.539h-5.869l3.315,3.074H23.406z M17.359,44.098
	c0.016,0.174,0.048-0.04,0.048-0.04v-2.533l-0.412,0.462C17.231,42.628,17.312,43.549,17.359,44.098 M11.193,19.194
	c0,0.215,0.172,0.392,0.385,0.392c0.211,0,0.383-0.177,0.383-0.392c0-0.214-0.172-0.387-0.383-0.387
	C11.365,18.807,11.193,18.98,11.193,19.194 M17.339,46.938c0.211,0,0.383-0.176,0.383-0.391s-0.171-0.389-0.383-0.389
	s-0.383,0.174-0.383,0.389S17.127,46.938,17.339,46.938 M20.013,17.915l3.394,3.386v-2.622l-3.394-3.443V17.915z M17.375,38.051
	h-1.614v2.074h1.614V38.051z M39.853,15.757l-2.639,2.914l0.028,4.654c0,0-0.08,0.766-0.242,1.144h1.695l4.845-4.917L39.853,15.757z
	 M25.563,30.021v0.796h-0.846v0.935h0.746v0.792h-0.746v0.965h0.855v0.799h-1.688v-4.279l-1.17,4.279h-0.683l-1.219-4.286h0.896
	l0.503,2.058c0.072,0.244,0.102,0.488,0.15,0.736h0.011c0.045-0.254,0.063-0.496,0.129-0.75l0.51-2.044H25.563z M26.613,39.523
	h-0.889l-0.157-0.719h-0.846l-0.152,0.719H23.74l0.981-4.285H25.6L26.613,39.523z M25.735,30.021h0.839
	c0.532,0,1.481,0.056,1.481,1.226c0,0.472-0.183,0.878-0.596,1.109l0.733,1.951h-0.878l-0.734-1.979H26.57v1.979h-0.834V30.021z
	 M28.358,30.021h0.833v4.286h-0.833V30.021z M27.74,39.594c-0.235,0-0.526-0.076-0.717-0.219v-0.806
	c0.197,0.136,0.385,0.228,0.633,0.228c0.269,0,0.481-0.182,0.481-0.465c0-0.33-0.258-0.459-0.493-0.627
	c-0.481-0.331-0.779-0.648-0.779-1.271c0-0.681,0.386-1.266,1.104-1.266c0.269,0,0.51,0.076,0.739,0.212v0.825
	c-0.168-0.148-0.375-0.273-0.605-0.273c-0.258,0-0.42,0.158-0.42,0.422c0,0.703,1.271,0.744,1.271,1.902
	C28.954,39.019,28.522,39.594,27.74,39.594 M23.589,36.033h-0.662v3.49h-0.834v-3.49h-0.655v-0.795h2.151V36.033z M19.421,25.074
	v18.03h8.801c0.998,0.023,2.022,0.818,2.022,0.818V29.499c-5.335-0.118-6.409-4.425-6.409-4.425H19.421z M19.804,48.538
	c-0.081-1.376-0.329-2.374-0.633-3.177l-1.559,0.004C18.035,46.863,18.992,48,18.992,48c-2.857-1.862-5.939-0.707-5.939-0.707
	C15.886,49.961,19.804,48.538,19.804,48.538 M14.511,19.657l-0.785-0.749c-1.895,0.491-3.273,2.198-3.273,2.198
	c0.891-2.161,0.41-4.184,0.01-5.26l-0.571-0.472c-1.645,3.167,0.178,6.638,0.178,6.638C12.6,21.395,13.882,20.379,14.511,19.657
	 M10.254,43.948c2.332,3.124,6.437,2.411,6.437,2.411c0.496-4.426-1.269-5.858-1.269-5.858c-1.096,2.345,0.562,5.185,0.562,5.185
	C13.491,43.348,10.254,43.948,10.254,43.948 M17.323,28.241h-1.616v2.077h1.616V28.241z"/>
</svg>
