<?xml version="1.0" encoding="utf-8"?>
<!-- Generator: Adobe Illustrator 16.0.0, SVG Export Plug-In . SVG Version: 6.00 Build 0)  -->
<!DOCTYPE svg PUBLIC "-//W3C//DTD SVG 1.1//EN" "http://www.w3.org/Graphics/SVG/1.1/DTD/svg11.dtd">
<svg version="1.1" id="레이어_1" xmlns="http://www.w3.org/2000/svg" xmlns:xlink="http://www.w3.org/1999/xlink" x="0px"
	 y="0px" width="280.234px" height="63.255px" viewBox="0 0 280.234 63.255" enable-background="new 0 0 280.234 63.255"
	 xml:space="preserve">
<g>
	<path fill-rule="evenodd" clip-rule="evenodd" fill="#FFFFFF" stroke="#FFFFFF" stroke-width="0.25" stroke-miterlimit="10" d="
		M105.413,33.762c-1.745,0-3.491-0.001-5.235,0c-0.375,0-0.749,0.006-1.124,0.001c-0.318-0.005-0.636-0.016-0.953-0.035
		c-0.096-0.006-0.195-0.037-0.284-0.077c-0.224-0.1-0.411-0.249-0.543-0.457c-0.041-0.064-0.069-0.139-0.091-0.213
		c-0.038-0.128-0.071-0.259-0.096-0.391c-0.022-0.117-0.039-0.237-0.042-0.356c-0.007-0.24-0.005-0.48-0.005-0.721
		c0-0.819,0-1.64-0.002-2.458c0-0.163-0.009-0.325-0.011-0.488c-0.001-0.091-0.003-0.184,0.009-0.274
		c0.022-0.155,0.11-0.234,0.267-0.255c0.042-0.006,0.084-0.005,0.127-0.005c2.084,0.002,4.168,0.005,6.253,0.006
		c1.886,0,3.772-0.004,5.659-0.004c0.269,0,0.537,0.007,0.805,0.009c0.071,0.001,0.142,0.004,0.211-0.006
		c0.149-0.02,0.235-0.099,0.248-0.245c0.014-0.162,0.014-0.325,0.008-0.487c-0.004-0.119-0.081-0.194-0.194-0.222
		c-0.061-0.015-0.126-0.017-0.189-0.017c-2.692,0.001-5.384,0.003-8.076,0.004c-1.498,0.001-2.996-0.001-4.494-0.001
		c-0.106,0-0.212,0.007-0.318,0.003c-0.216-0.009-0.305-0.097-0.323-0.312c-0.001-0.014-0.002-0.028-0.002-0.042
		c0.003-0.304,0.008-0.607,0.01-0.91c0.001-0.19,0-0.382-0.002-0.572c-0.001-0.084-0.013-0.169-0.008-0.254
		c0.008-0.137,0.085-0.222,0.219-0.247c0.055-0.011,0.113-0.011,0.169-0.011c1.06,0,2.12,0.001,3.179,0.001
		c0.897,0,1.794,0.001,2.692,0.002c0.071,0,0.142,0.002,0.211-0.006c0.133-0.017,0.199-0.085,0.22-0.219
		c0.004-0.028,0.006-0.057,0.006-0.085c0-0.162,0-0.324-0.002-0.487c-0.001-0.049-0.008-0.099-0.02-0.146
		c-0.023-0.09-0.083-0.146-0.175-0.163c-0.055-0.01-0.112-0.013-0.168-0.013c-0.792,0.002-1.583,0.007-2.374,0.009
		s-1.583,0.001-2.374,0.001c-0.53,0-1.059,0-1.589,0.002c-0.092,0-0.184,0.008-0.275,0.008c-0.178,0.001-0.258-0.072-0.275-0.251
		c-0.005-0.049-0.004-0.099-0.004-0.147c0-0.495-0.001-0.989-0.001-1.484c0-0.042,0-0.085,0.006-0.126
		c0.025-0.161,0.112-0.234,0.273-0.233c0.163,0.001,0.325,0.006,0.487,0.007c0.819,0.001,1.639,0,2.458,0.002
		c0.254,0.001,0.508,0.011,0.762,0.015c0.049,0.001,0.1,0,0.147-0.011c0.102-0.022,0.146-0.089,0.118-0.188
		c-0.017-0.06-0.038-0.129-0.08-0.17c-0.156-0.152-0.245-0.349-0.339-0.534c-0.136-0.27-0.277-0.542-0.326-0.848
		c-0.011-0.069-0.029-0.139-0.052-0.205c-0.098-0.284-0.124-0.58-0.138-0.876c-0.023-0.461,0.016-0.918,0.07-1.375
		c0.007-0.056,0.021-0.11,0.034-0.165c0.038-0.158,0.073-0.317,0.116-0.474c0.034-0.122,0.072-0.244,0.121-0.36
		c0.094-0.221,0.182-0.445,0.299-0.653c0.188-0.332,0.393-0.654,0.665-0.927c0.04-0.039,0.08-0.08,0.118-0.122
		c0.316-0.349,0.696-0.618,1.087-0.873c0.059-0.039,0.125-0.066,0.188-0.098c0.038-0.019,0.081-0.028,0.117-0.05
		c0.226-0.138,0.479-0.205,0.724-0.295c0.187-0.069,0.378-0.116,0.574-0.149c0.355-0.062,0.713-0.107,1.074-0.113
		c0.239-0.004,0.48,0.013,0.718,0.038c0.238,0.026,0.474,0.076,0.711,0.116c0.042,0.007,0.085,0.012,0.124,0.026
		c0.281,0.113,0.576,0.191,0.846,0.333c0.2,0.105,0.402,0.205,0.588,0.335c0.278,0.193,0.56,0.382,0.782,0.645
		c0.091,0.107,0.196,0.204,0.295,0.304c0.251,0.253,0.437,0.553,0.601,0.866c0.107,0.206,0.209,0.415,0.311,0.625
		c0.031,0.063,0.063,0.128,0.079,0.195c0.079,0.352,0.179,0.701,0.221,1.058c0.081,0.689,0.1,1.382-0.121,2.057
		c-0.024,0.074-0.042,0.15-0.058,0.226c-0.031,0.14-0.079,0.27-0.151,0.394c-0.103,0.177-0.194,0.36-0.295,0.538
		c-0.053,0.092-0.113,0.179-0.177,0.263c-0.065,0.086-0.116,0.178-0.133,0.284c-0.016,0.099,0.032,0.168,0.13,0.182
		c0.062,0.009,0.126,0.005,0.19,0.003c0.169-0.006,0.339-0.019,0.508-0.019c0.982-0.001,1.964,0.002,2.946,0.004
		c0.078,0,0.155-0.008,0.233-0.008c0.172,0,0.262,0.074,0.293,0.242c0.009,0.048,0.013,0.099,0.009,0.147
		c-0.037,0.459,0.009,0.918,0.003,1.377c-0.001,0.078,0.001,0.156-0.009,0.232c-0.024,0.171-0.121,0.259-0.29,0.239
		c-0.417-0.048-0.833,0.007-1.249-0.005c-0.417-0.013-0.833-0.003-1.25-0.003c-1.074,0-2.148,0.001-3.222-0.001
		c-0.254-0.001-0.508-0.013-0.763-0.017c-0.07-0.002-0.142,0-0.211,0.013c-0.144,0.026-0.23,0.113-0.236,0.258
		c-0.009,0.197-0.009,0.396-0.001,0.594c0.007,0.169,0.098,0.25,0.271,0.265c0.035,0.003,0.071,0.002,0.106,0.002
		c1.399-0.001,2.798-0.002,4.197-0.004c0.558-0.001,1.116-0.004,1.674-0.004c0.07-0.001,0.142-0.001,0.211,0.011
		c0.13,0.021,0.199,0.096,0.217,0.226c0.007,0.048,0.005,0.099,0.004,0.147c-0.005,0.551-0.016,1.103-0.017,1.653
		c-0.002,1.046,0,2.091,0,3.137c0,0.07,0.001,0.142-0.005,0.212c-0.013,0.153-0.083,0.229-0.235,0.254
		c-0.056,0.01-0.113,0.01-0.169,0.01c-2.402-0.002-4.804-0.005-7.206-0.006c-1.682-0.001-3.363-0.001-5.044-0.001
		c-0.184,0-0.368-0.003-0.551-0.003c-0.063,0-0.128,0.001-0.189,0.014c-0.099,0.021-0.168,0.087-0.172,0.19
		c-0.006,0.189-0.005,0.381,0.003,0.571c0.004,0.102,0.074,0.167,0.171,0.191c0.054,0.013,0.112,0.015,0.168,0.015
		c1.985-0.001,3.971-0.004,5.956-0.005c1.724-0.001,3.448,0,5.172,0c0.558,0,1.116-0.003,1.674-0.003
		c0.057,0,0.113-0.001,0.169,0.007c0.167,0.021,0.24,0.09,0.261,0.255c0.011,0.083,0.007,0.169,0.007,0.254
		c0,0.479-0.002,0.96-0.003,1.44c0,0.07,0.006,0.142-0.003,0.211c-0.023,0.164-0.118,0.249-0.282,0.264
		c-0.035,0.003-0.07,0.002-0.106,0.002c-0.918-0.003-1.837-0.008-2.755-0.009C108.409,33.76,106.911,33.761,105.413,33.762
		C105.413,33.761,105.413,33.761,105.413,33.762z M105.038,21.28c0.183-0.012,0.36-0.016,0.535-0.036
		c0.3-0.034,0.55-0.21,0.825-0.313c0.193-0.153,0.388-0.306,0.58-0.461c0.167-0.135,0.285-0.312,0.409-0.483
		c0.176-0.242,0.32-0.499,0.386-0.794c0.019-0.083,0.05-0.162,0.072-0.244c0.023-0.088,0.048-0.178,0.061-0.268
		c0.055-0.418,0.042-0.831-0.101-1.233c-0.016-0.047-0.031-0.095-0.039-0.144c-0.045-0.303-0.209-0.552-0.368-0.802
		c-0.072-0.113-0.143-0.23-0.233-0.327c-0.258-0.274-0.563-0.49-0.886-0.683c-0.276-0.085-0.547-0.197-0.829-0.248
		c-0.24-0.044-0.492-0.025-0.739-0.02c-0.103,0.003-0.206,0.042-0.307,0.071c-0.115,0.031-0.229,0.068-0.343,0.106
		c-0.106,0.036-0.217,0.064-0.317,0.115c-0.201,0.104-0.389,0.231-0.56,0.38c-0.127,0.11-0.258,0.226-0.353,0.363
		c-0.25,0.358-0.497,0.723-0.556,1.174c-0.008,0.063-0.034,0.122-0.053,0.183c-0.112,0.351-0.116,0.709-0.068,1.069
		c0.01,0.076,0.04,0.149,0.062,0.224c0.034,0.115,0.07,0.229,0.104,0.344c0.019,0.061,0.03,0.124,0.053,0.183
		c0.121,0.305,0.292,0.585,0.506,0.827c0.314,0.355,0.675,0.662,1.138,0.818c0.04,0.014,0.078,0.033,0.115,0.054
		c0.119,0.068,0.249,0.102,0.383,0.112C104.691,21.261,104.868,21.27,105.038,21.28z"/>
	<path fill-rule="evenodd" clip-rule="evenodd" fill="#FFFFFF" stroke="#FFFFFF" stroke-width="0.25" stroke-miterlimit="10" d="
		M240.596,24.099c0,3.038,0,6.075,0,9.113c0,0.099,0.003,0.197,0.003,0.297c-0.001,0.049-0.001,0.1-0.01,0.147
		c-0.022,0.138-0.085,0.195-0.227,0.204c-0.135,0.008-0.269,0.009-0.403,0.01c-0.297,0.003-0.593,0.004-0.89,0.006
		c-0.184,0.001-0.367,0.001-0.551,0c-0.042-0.001-0.085-0.004-0.126-0.012c-0.143-0.029-0.204-0.101-0.209-0.249
		c-0.004-0.106,0.001-0.212,0.001-0.318c0.001-0.614,0.001-1.229,0.002-1.844c0-0.007,0-0.015,0-0.021
		c-0.002-0.244-0.08-0.329-0.33-0.336c-0.275-0.007-0.551-0.001-0.827-0.001c-3.574,0-7.149,0.001-10.724,0.002
		c-0.643,0-1.285,0.001-1.929,0.001c-0.063,0-0.128,0.002-0.19-0.007c-0.117-0.016-0.176-0.075-0.19-0.192
		c-0.007-0.056-0.004-0.112-0.004-0.169c0-0.544-0.001-1.088,0.001-1.632c0-0.077,0.001-0.156,0.017-0.231
		c0.023-0.122,0.097-0.182,0.218-0.196c0.035-0.004,0.071-0.003,0.105-0.003c0.806,0.002,1.611,0.005,2.416,0.007
		c0.48,0.002,0.961,0.004,1.441,0.006c0.057,0,0.113,0.001,0.169-0.005c0.146-0.017,0.232-0.094,0.262-0.236
		c0.013-0.062,0.014-0.126,0.014-0.189c0.002-0.763,0.004-1.526,0.004-2.289c0-0.077-0.004-0.155-0.014-0.232
		c-0.017-0.114-0.082-0.192-0.193-0.23c-0.007-0.003-0.013-0.007-0.02-0.007c-0.259-0.029-0.48-0.162-0.714-0.259
		c-0.201-0.083-0.4-0.18-0.585-0.296c-0.191-0.118-0.394-0.223-0.559-0.381c-0.062-0.059-0.132-0.107-0.191-0.167
		c-0.213-0.216-0.44-0.419-0.626-0.661c-0.185-0.241-0.37-0.485-0.498-0.759c-0.132-0.28-0.273-0.559-0.341-0.866
		c-0.024-0.109-0.063-0.217-0.102-0.323c-0.05-0.141-0.083-0.284-0.092-0.434c-0.013-0.226-0.025-0.451-0.036-0.677
		c-0.018-0.354,0.018-0.706,0.045-1.058c0.008-0.104,0.051-0.205,0.082-0.306c0.035-0.114,0.08-0.227,0.116-0.341
		c0.097-0.296,0.212-0.582,0.391-0.842c0.084-0.121,0.153-0.253,0.261-0.357c0.024-0.023,0.039-0.06,0.051-0.092
		c0.027-0.084-0.011-0.163-0.096-0.182c-0.061-0.014-0.126-0.015-0.188-0.014c-0.219,0-0.438,0.005-0.657,0.006
		c-0.063,0-0.128-0.002-0.189-0.014c-0.131-0.026-0.197-0.098-0.214-0.229c-0.007-0.063-0.005-0.127-0.005-0.19
		c0-0.516,0-1.031,0.001-1.547c0-0.063-0.001-0.127,0.007-0.19c0.016-0.129,0.085-0.204,0.213-0.229
		c0.062-0.013,0.126-0.014,0.189-0.014c1.096,0,2.19,0,3.285,0c0.085,0,0.17,0.009,0.254,0.007c0.155-0.003,0.235-0.069,0.262-0.222
		c0.012-0.062,0.012-0.126,0.011-0.189c-0.001-0.354-0.004-0.707-0.006-1.06c-0.001-0.285,0.107-0.4,0.395-0.402
		c0.431-0.004,0.862,0.002,1.293,0.002c0.184,0,0.367-0.004,0.551-0.006c0.036,0,0.071-0.002,0.105,0.002
		c0.154,0.015,0.246,0.1,0.268,0.253c0.008,0.063,0.006,0.127,0.005,0.19c-0.006,0.325-0.015,0.649-0.019,0.975
		c-0.001,0.077,0.01,0.154,0.023,0.23c0.021,0.117,0.097,0.188,0.212,0.207c0.069,0.013,0.141,0.015,0.211,0.015
		c1.018,0.001,2.034,0.001,3.052,0.001c0.106-0.001,0.212-0.007,0.318-0.008c0.056,0,0.113,0.001,0.168,0.01
		c0.125,0.022,0.202,0.1,0.225,0.224c0.011,0.063,0.01,0.127,0.01,0.19c0,0.522-0.001,1.045-0.002,1.568c0,0.07,0,0.142-0.013,0.211
		c-0.021,0.116-0.094,0.188-0.211,0.208c-0.063,0.01-0.127,0.011-0.19,0.01c-0.239-0.001-0.479-0.005-0.72-0.006
		c-0.064-0.001-0.129,0-0.19,0.013c-0.085,0.017-0.12,0.101-0.083,0.182c0.009,0.019,0.02,0.037,0.032,0.055
		c0.077,0.108,0.151,0.221,0.234,0.325c0.125,0.156,0.208,0.337,0.294,0.514c0.09,0.184,0.169,0.373,0.245,0.563
		c0.029,0.07,0.041,0.148,0.058,0.225c0.033,0.151,0.061,0.305,0.096,0.456c0.07,0.306,0.088,0.615,0.053,0.926
		c-0.042,0.365-0.098,0.729-0.151,1.091c-0.013,0.083-0.042,0.164-0.07,0.244c-0.051,0.139-0.105,0.276-0.16,0.414
		c-0.101,0.256-0.216,0.505-0.358,0.742c-0.143,0.236-0.296,0.465-0.483,0.668c-0.239,0.259-0.468,0.53-0.761,0.733
		c-0.219,0.153-0.434,0.313-0.678,0.431c-0.196,0.096-0.388,0.2-0.592,0.281c-0.132,0.052-0.261,0.105-0.399,0.137
		c-0.186,0.043-0.248,0.122-0.264,0.309c-0.004,0.057-0.003,0.112-0.003,0.169c0,0.771,0,1.541,0,2.311
		c0,0.057,0.001,0.114,0.011,0.169c0.027,0.148,0.106,0.223,0.255,0.24c0.056,0.007,0.112,0.005,0.169,0.005
		c2.105,0,4.211,0.001,6.315,0.001c0.063,0,0.128,0,0.19-0.008c0.163-0.021,0.239-0.098,0.258-0.259
		c0.008-0.063,0.007-0.127,0.007-0.19c-0.001-2.374-0.001-4.747-0.002-7.121c0-2.084-0.001-4.168-0.001-6.252
		c0-0.092-0.002-0.185,0.007-0.275c0.021-0.211,0.118-0.301,0.33-0.305c0.163-0.003,0.325,0.001,0.487,0.001
		c0.382,0,0.764,0,1.146-0.001c0.049,0,0.099-0.001,0.147,0.001c0.198,0.012,0.276,0.088,0.294,0.289
		c0.006,0.063,0.004,0.127,0.004,0.19C240.597,17.867,240.597,20.982,240.596,24.099L240.596,24.099z M229.845,17.54
		c-0.349-0.02-0.642,0.004-0.913,0.15c-0.013,0.006-0.026,0.011-0.04,0.014c-0.226,0.052-0.413,0.178-0.596,0.311
		c-0.063,0.046-0.119,0.102-0.183,0.146c-0.25,0.172-0.432,0.403-0.585,0.659c-0.068,0.115-0.146,0.228-0.197,0.35
		c-0.069,0.162-0.123,0.33-0.172,0.5c-0.038,0.128-0.072,0.26-0.082,0.393c-0.059,0.729,0.062,1.422,0.47,2.043
		c0.115,0.177,0.235,0.354,0.396,0.495c0.068,0.061,0.143,0.116,0.212,0.176c0.222,0.188,0.459,0.351,0.746,0.429
		c0.074,0.02,0.146,0.055,0.219,0.079c0.066,0.021,0.135,0.049,0.203,0.056c0.45,0.045,0.902,0.087,1.327-0.13
		c0.02-0.009,0.04-0.017,0.061-0.021c0.25-0.071,0.457-0.216,0.654-0.38c0.043-0.036,0.087-0.071,0.13-0.107
		c0.189-0.161,0.358-0.339,0.478-0.561c0.023-0.043,0.05-0.085,0.078-0.126c0.159-0.229,0.263-0.482,0.329-0.751
		c0.14-0.561,0.112-1.123-0.017-1.679c-0.046-0.196-0.143-0.382-0.217-0.572c-0.011-0.025-0.029-0.048-0.045-0.071
		c-0.063-0.094-0.124-0.188-0.188-0.281c-0.04-0.058-0.08-0.116-0.125-0.17c-0.189-0.222-0.421-0.396-0.654-0.565
		c-0.107-0.078-0.234-0.128-0.355-0.185c-0.083-0.039-0.172-0.064-0.255-0.103c-0.131-0.061-0.268-0.09-0.41-0.096
		C230.008,17.536,229.901,17.54,229.845,17.54z"/>
	<path fill-rule="evenodd" clip-rule="evenodd" fill="#FFFFFF" stroke="#FFFFFF" stroke-width="0.25" stroke-miterlimit="10" d="
		M134.276,24.091c0,2.409,0,4.818,0,7.228c0,0.686,0.004,1.37,0.006,2.056c0,0.071,0.002,0.142-0.003,0.212
		c-0.015,0.192-0.1,0.281-0.295,0.29c-0.162,0.008-0.325-0.002-0.487-0.002c-0.374-0.002-0.749-0.002-1.123-0.003
		c-0.021,0-0.042,0.002-0.064,0.001c-0.192-0.007-0.281-0.084-0.309-0.278c-0.01-0.07-0.011-0.142-0.011-0.212
		c0.001-1.809,0.004-3.617,0.005-5.426c0-1.3-0.002-2.601-0.002-3.9c0-0.197,0.012-0.396,0.014-0.593
		c0-0.092-0.004-0.185-0.02-0.273c-0.025-0.149-0.104-0.221-0.256-0.239c-0.063-0.009-0.126-0.007-0.19-0.008
		c-0.367-0.004-0.734-0.007-1.102-0.011c-0.155-0.001-0.226,0.05-0.251,0.199c-0.015,0.09-0.017,0.183-0.017,0.274
		c-0.002,0.501-0.002,1.003-0.002,1.505c0,2.847,0.001,5.694,0.001,8.542c0,0.056,0.002,0.112-0.003,0.169
		c-0.015,0.164-0.078,0.228-0.238,0.241c-0.042,0.003-0.085,0.002-0.127,0.002c-0.402-0.001-0.805-0.002-1.208-0.001
		c-0.084,0-0.169,0.009-0.254,0.012c-0.049,0.002-0.099,0.007-0.148,0.001c-0.125-0.015-0.208-0.088-0.233-0.212
		c-0.011-0.055-0.012-0.112-0.012-0.168c0.001-1.074,0.002-2.148,0.004-3.222c0-0.12,0.003-0.24,0.004-0.36
		c0-0.05,0.001-0.1-0.003-0.148c-0.017-0.206-0.115-0.301-0.326-0.316c-0.035-0.002-0.07-0.001-0.105-0.001
		c-2.332,0-4.663,0.001-6.995,0.002c-0.269,0-0.537-0.003-0.805-0.003c-0.304,0-0.592-0.077-0.853-0.225
		c-0.205-0.114-0.372-0.28-0.437-0.521c-0.037-0.137-0.08-0.271-0.108-0.41c-0.021-0.103-0.033-0.21-0.033-0.314
		c-0.002-1.696-0.001-3.392-0.001-5.087c0-2.417,0-4.833,0-7.249c0-0.311,0.004-0.622-0.003-0.933
		c-0.007-0.298,0.112-0.443,0.449-0.442c1.462,0.008,2.925,0.006,4.387,0.006c0.848,0.001,1.696-0.003,2.543-0.004
		c0.049,0,0.099-0.002,0.148,0.004c0.167,0.019,0.251,0.101,0.274,0.27c0.007,0.049,0.007,0.1,0.008,0.148
		c0.001,0.367,0,0.734,0.003,1.102c0.001,0.135,0.011,0.269,0.011,0.402c0,0.092,0.002,0.185-0.016,0.273
		c-0.034,0.164-0.131,0.238-0.297,0.25c-0.021,0.002-0.042,0.001-0.063,0.001c-0.897,0-1.794,0-2.691-0.002
		c-0.622-0.001-1.244-0.005-1.865-0.007c-0.056,0-0.113-0.003-0.169,0.004c-0.144,0.016-0.228,0.1-0.249,0.244
		c-0.006,0.042-0.005,0.085-0.005,0.127c0.001,2.034,0.004,4.069,0.005,6.104c0.001,1.038,0.001,2.077,0.001,3.115
		c0,0.106-0.004,0.212-0.004,0.317c0,0.063-0.001,0.129,0.01,0.19c0.024,0.139,0.104,0.209,0.243,0.224
		c0.035,0.003,0.07,0.002,0.105,0.002c2.021-0.001,4.042-0.002,6.062-0.003c0.141,0,0.283,0.006,0.424,0.003
		c0.257-0.006,0.355-0.105,0.356-0.367c0.001-0.466-0.005-0.933-0.005-1.398c0-3.398,0.002-6.797,0.004-10.195
		c0-0.141-0.008-0.282-0.006-0.424c0-0.063,0.003-0.129,0.025-0.187c0.046-0.123,0.14-0.194,0.274-0.197
		c0.099-0.002,0.198,0.004,0.297,0.006c0.282,0.005,0.564,0.013,0.847,0.014c0.141,0.001,0.282-0.014,0.423-0.018
		c0.268-0.01,0.346,0.059,0.352,0.326c0.007,0.324,0.003,0.65,0.003,0.975c0,1.526,0,3.053,0,4.578c0,0.063,0,0.128,0.01,0.19
		c0.021,0.124,0.089,0.188,0.216,0.19c0.134,0.003,0.268-0.01,0.402-0.011c0.247-0.002,0.494,0.001,0.741,0
		c0.077,0,0.156,0.003,0.232-0.009c0.125-0.02,0.203-0.097,0.219-0.224c0.012-0.091,0.02-0.184,0.019-0.274
		c-0.004-0.742-0.012-1.483-0.015-2.226c-0.004-1.018-0.004-2.034-0.005-3.052c0-0.07,0-0.143,0.012-0.211
		c0.026-0.152,0.119-0.235,0.271-0.251c0.049-0.006,0.099-0.003,0.148-0.003c0.495-0.001,0.989-0.002,1.483-0.003
		c0.028,0,0.057-0.002,0.084,0.001c0.164,0.014,0.257,0.099,0.283,0.263c0.007,0.049,0.008,0.099,0.008,0.148
		c0,3.137,0,6.273,0,9.41C134.28,24.091,134.278,24.091,134.276,24.091z"/>
	<path fill-rule="evenodd" clip-rule="evenodd" fill="#FFFFFF" stroke="#FFFFFF" stroke-width="0.25" stroke-miterlimit="10" d="
		M168.837,21.264c2.395,0,4.79,0,7.185,0c0.332-0.001,0.664-0.006,0.996-0.007c0.07,0,0.142,0,0.211,0.012
		c0.113,0.02,0.174,0.083,0.191,0.197c0.008,0.055,0.007,0.112,0.007,0.169c0,0.522,0.001,1.045,0,1.568
		c0,0.07,0.002,0.142-0.009,0.211c-0.019,0.12-0.087,0.189-0.208,0.208c-0.076,0.012-0.155,0.011-0.232,0.011
		c-1.675-0.001-3.349-0.003-5.023-0.004c-0.516,0-1.031,0-1.547,0.001c-0.07,0-0.143,0.001-0.211,0.012
		c-0.117,0.02-0.202,0.092-0.207,0.209c-0.01,0.211-0.009,0.424,0.007,0.634c0.009,0.123,0.088,0.181,0.216,0.196
		c0.076,0.009,0.154,0.008,0.232,0.008c1.9,0.001,3.801,0.002,5.701,0.001c0.099,0,0.199,0,0.296-0.016
		c0.2-0.033,0.357,0.104,0.355,0.336c-0.009,1.004-0.007,2.007-0.009,3.01c0,0.608,0.001,1.216,0,1.823
		c0,0.077,0.001,0.156-0.009,0.232c-0.026,0.187-0.111,0.256-0.3,0.254c-0.262-0.003-0.522-0.009-0.784-0.009
		c-3.913-0.001-7.827-0.001-11.741-0.002c-0.099,0-0.198-0.002-0.297-0.002c-0.05,0-0.1,0-0.148,0.005
		c-0.179,0.021-0.268,0.106-0.275,0.288c-0.009,0.184-0.007,0.367,0.002,0.551c0.006,0.128,0.084,0.207,0.21,0.229
		c0.063,0.011,0.127,0.011,0.19,0.011c1.88,0,3.759-0.001,5.638-0.001c2.289,0,4.578,0,6.867,0c0.105,0,0.212-0.007,0.317-0.011
		c0.221-0.008,0.311,0.069,0.329,0.29c0.005,0.057,0.003,0.113,0.003,0.17c0.001,0.516,0.001,1.031,0.001,1.547
		c0,0.028,0.001,0.057-0.001,0.085c-0.014,0.2-0.112,0.292-0.313,0.292c-4.076-0.004-8.152-0.009-12.229-0.012
		c-0.509-0.001-1.018,0.006-1.526,0.002c-0.261-0.002-0.522-0.017-0.783-0.031c-0.219-0.012-0.411-0.092-0.576-0.238
		c-0.043-0.037-0.087-0.072-0.131-0.107c-0.091-0.073-0.152-0.166-0.19-0.275c-0.037-0.106-0.086-0.21-0.116-0.317
		c-0.034-0.122-0.065-0.247-0.075-0.372c-0.019-0.226-0.027-0.452-0.027-0.678c-0.003-1.081-0.003-2.161-0.002-3.243
		c0-0.084-0.001-0.17,0.012-0.253c0.019-0.123,0.088-0.187,0.21-0.204c0.056-0.008,0.113-0.007,0.169-0.007
		c3.073,0.001,6.146,0.002,9.22,0.002c1.188,0.001,2.374,0,3.561-0.001c0.07,0,0.143-0.002,0.21-0.017
		c0.099-0.021,0.166-0.089,0.172-0.191c0.012-0.196,0.02-0.395,0.014-0.593c-0.005-0.148-0.09-0.233-0.238-0.252
		c-0.112-0.013-0.226-0.014-0.338-0.014c-1.06,0.002-2.12,0.006-3.179,0.006c-2.65,0.002-5.3,0.001-7.948,0.001
		c-0.48,0-0.961,0.002-1.441,0.002c-0.063,0-0.128,0.002-0.19-0.006c-0.129-0.017-0.206-0.089-0.228-0.215
		c-0.009-0.048-0.007-0.099-0.008-0.148c-0.001-0.522-0.003-1.045-0.004-1.567c0-0.007,0-0.015,0-0.021
		c0-0.248,0.077-0.328,0.331-0.329c0.854-0.003,1.709-0.003,2.564-0.003c1.187,0,2.373,0,3.561,0c0.035,0,0.071,0.002,0.105-0.001
		c0.154-0.01,0.243-0.078,0.253-0.232c0.013-0.203,0.011-0.409-0.004-0.612c-0.011-0.14-0.101-0.204-0.246-0.216
		c-0.035-0.003-0.07-0.001-0.105-0.001c-2.099,0-4.196,0.001-6.295,0.002c-0.12,0-0.239,0.005-0.36,0.006
		c-0.056,0-0.113,0.001-0.168-0.009c-0.132-0.024-0.213-0.108-0.232-0.242c-0.009-0.063-0.008-0.126-0.008-0.189
		c0-0.516,0-1.032,0.002-1.547c0-0.057-0.001-0.114,0.008-0.17c0.019-0.117,0.09-0.189,0.206-0.213
		c0.055-0.011,0.112-0.012,0.169-0.011c0.678,0.002,1.355,0.007,2.033,0.008c1.484,0.002,2.968,0.002,4.451,0.002
		C167.664,21.264,168.25,21.264,168.837,21.264z"/>
	<path fill-rule="evenodd" clip-rule="evenodd" fill="#FFFFFF" stroke="#FFFFFF" stroke-width="0.25" stroke-miterlimit="10" d="
		M211.32,14.276c2.239,0,4.479,0,6.72-0.001c0.289,0,0.579-0.003,0.869-0.003c0.07,0,0.141,0.005,0.21,0.018
		c0.107,0.021,0.181,0.088,0.198,0.195c0.018,0.104,0.024,0.21,0.024,0.315c-0.002,0.417-0.01,0.834-0.013,1.25
		c0,0.063,0.007,0.127,0.011,0.19c0.003,0.043,0.008,0.085,0.008,0.127c0,0.268-0.107,0.377-0.371,0.375
		c-0.276-0.003-0.552-0.012-0.827-0.012c-0.205,0-0.409,0.009-0.614,0.014c-0.057,0.002-0.112,0.005-0.169,0.005
		c-0.431,0-0.862,0.002-1.293-0.001c-0.883-0.005-1.766-0.013-2.648-0.019c-0.071-0.001-0.142-0.004-0.212,0.004
		c-0.188,0.02-0.285,0.127-0.265,0.313c0.021,0.203,0.059,0.405,0.145,0.595c0.047,0.103,0.085,0.209,0.134,0.311
		c0.037,0.076,0.082,0.148,0.128,0.219c0.147,0.226,0.334,0.419,0.52,0.612c0.044,0.046,0.087,0.094,0.14,0.128
		c0.368,0.237,0.74,0.47,1.156,0.618c0.02,0.007,0.039,0.018,0.06,0.022c0.452,0.109,0.885,0.297,1.354,0.335
		c0.776,0.175,1.569,0.187,2.356,0.263c0.049,0.005,0.099,0.006,0.147,0.015c0.146,0.029,0.225,0.107,0.246,0.254
		c0.01,0.068,0.005,0.141,0.005,0.211c0.002,0.509,0.002,1.017,0.003,1.524c0,0.043,0.006,0.085,0.003,0.127
		c-0.014,0.196-0.128,0.291-0.323,0.274c-0.141-0.012-0.281-0.023-0.422-0.035c-0.627-0.049-1.254-0.096-1.88-0.148
		c-0.126-0.011-0.251-0.042-0.376-0.065c-0.111-0.02-0.222-0.051-0.333-0.062c-0.29-0.027-0.571-0.091-0.852-0.169
		c-0.299-0.082-0.599-0.156-0.892-0.268c-0.263-0.1-0.533-0.186-0.789-0.304c-0.237-0.109-0.466-0.236-0.691-0.367
		c-0.268-0.157-0.509-0.353-0.745-0.555c-0.168-0.144-0.308-0.312-0.448-0.478c-0.041-0.049-0.079-0.102-0.126-0.143
		c-0.103-0.087-0.225-0.081-0.296,0.027c-0.254,0.386-0.618,0.657-0.969,0.939c-0.174,0.141-0.378,0.246-0.576,0.354
		c-0.161,0.087-0.334,0.153-0.501,0.229c-0.052,0.023-0.105,0.044-0.154,0.071c-0.137,0.075-0.279,0.132-0.435,0.162
		c-0.075,0.015-0.151,0.04-0.218,0.077c-0.12,0.065-0.244,0.107-0.379,0.131c-0.11,0.02-0.221,0.049-0.328,0.082
		c-0.312,0.098-0.631,0.157-0.953,0.203c-0.063,0.009-0.127,0.013-0.188,0.029c-0.426,0.113-0.864,0.142-1.301,0.174
		c-0.38,0.029-0.761,0.051-1.141,0.079c-0.105,0.008-0.21,0.025-0.314,0.041c-0.218,0.033-0.319-0.047-0.332-0.271
		c-0.006-0.119-0.003-0.239-0.003-0.359c-0.001-0.417-0.002-0.834-0.001-1.251c0-0.099,0.001-0.198,0.017-0.296
		c0.027-0.171,0.1-0.232,0.271-0.235c0.594-0.011,1.183-0.089,1.774-0.129c0.042-0.003,0.084-0.011,0.126-0.018
		c0.313-0.056,0.625-0.112,0.938-0.168c0.028-0.006,0.057-0.009,0.083-0.018c0.275-0.092,0.549-0.186,0.833-0.245
		c0.373-0.167,0.744-0.33,1.087-0.565c0.353-0.242,0.618-0.552,0.864-0.89c0.017-0.023,0.034-0.046,0.045-0.071
		c0.095-0.243,0.197-0.483,0.276-0.731c0.035-0.111,0.033-0.238,0.026-0.356c-0.01-0.164-0.101-0.238-0.266-0.234
		c-0.212,0.005-0.424,0.025-0.636,0.026c-0.614,0.004-1.229,0.001-1.844,0c-0.402,0-0.806,0.002-1.208,0
		c-0.423-0.003-0.847-0.013-1.271-0.014c-0.269,0-0.536,0.008-0.804,0.015c-0.196,0.006-0.293-0.069-0.307-0.266
		c-0.012-0.154-0.006-0.311-0.006-0.466c0-0.445,0-0.891,0.002-1.335c0-0.077,0.002-0.156,0.019-0.231
		c0.026-0.121,0.101-0.18,0.227-0.185c0.112-0.004,0.226,0.005,0.339,0.005c2.451,0,4.903,0,7.354,0
		C211.32,14.273,211.32,14.274,211.32,14.276z"/>
	<path fill-rule="evenodd" clip-rule="evenodd" fill="#FFFFFF" stroke="#FFFFFF" stroke-width="0.25" stroke-miterlimit="10" d="
		M187.315,14.275c1.562,0,3.122,0,4.684,0c0.085,0,0.17-0.006,0.254-0.001c0.182,0.012,0.286,0.109,0.311,0.288
		c0.01,0.069,0.008,0.141,0.008,0.212c-0.001,0.402-0.003,0.805-0.003,1.208c0,0.091,0.007,0.183,0.011,0.274
		c0.001,0.035,0.005,0.07,0.004,0.106c-0.006,0.234-0.117,0.349-0.354,0.354c-0.232,0.004-0.466,0.001-0.699,0.001
		c-0.679-0.001-1.356,0-2.034-0.002c-0.148-0.001-0.297-0.015-0.445-0.014c-0.098,0-0.198,0.003-0.293,0.024
		c-0.146,0.032-0.219,0.122-0.219,0.271c0,0.311-0.003,0.622,0.016,0.933c0.043,0.704,0.098,1.408,0.148,2.113
		c0.006,0.077,0.009,0.156,0.029,0.23c0.104,0.377,0.138,0.764,0.182,1.15c0.005,0.049,0.007,0.099,0.019,0.146
		c0.096,0.42,0.19,0.84,0.293,1.259c0.048,0.191,0.112,0.379,0.174,0.566c0.025,0.081,0.061,0.158,0.093,0.236
		c0.019,0.046,0.047,0.088,0.061,0.135c0.058,0.197,0.149,0.38,0.232,0.566c0.122,0.272,0.282,0.521,0.433,0.775
		c0.219,0.37,0.514,0.674,0.821,0.965c0.162,0.154,0.337,0.299,0.545,0.398c0.203,0.097,0.399,0.21,0.604,0.307
		c0.088,0.041,0.186,0.066,0.282,0.086c0.322,0.066,0.387,0.139,0.387,0.472c0.001,0.529-0.004,1.06-0.005,1.589
		c0,0.148,0.004,0.297,0.006,0.445c0.005,0.275-0.083,0.358-0.359,0.324c-0.202-0.025-0.406-0.052-0.595-0.144
		c-0.031-0.015-0.065-0.028-0.1-0.035c-0.293-0.062-0.561-0.192-0.829-0.317c-0.18-0.082-0.367-0.16-0.522-0.278
		c-0.314-0.237-0.653-0.446-0.93-0.732c-0.132-0.137-0.256-0.282-0.383-0.425c-0.202-0.227-0.371-0.478-0.538-0.73
		c-0.063-0.095-0.133-0.184-0.196-0.276c-0.097-0.14-0.169-0.293-0.25-0.441c-0.204-0.371-0.355-0.769-0.56-1.139
		c-0.037-0.067-0.058-0.145-0.082-0.218c-0.017-0.054-0.024-0.11-0.042-0.164c-0.022-0.07-0.062-0.13-0.141-0.142
		c-0.092-0.013-0.144,0.047-0.186,0.115c-0.015,0.024-0.026,0.051-0.037,0.076c-0.117,0.272-0.224,0.55-0.354,0.815
		c-0.097,0.194-0.181,0.398-0.321,0.57c-0.027,0.032-0.049,0.069-0.068,0.106c-0.205,0.397-0.477,0.751-0.758,1.093
		c-0.206,0.25-0.415,0.5-0.663,0.713c-0.246,0.211-0.49,0.424-0.749,0.621c-0.199,0.15-0.415,0.273-0.634,0.38
		c-0.271,0.132-0.535,0.29-0.841,0.344c-0.082,0.015-0.159,0.057-0.238,0.085c-0.101,0.034-0.199,0.073-0.302,0.099
		c-0.06,0.016-0.126,0.02-0.188,0.013c-0.122-0.014-0.188-0.086-0.201-0.208c-0.002-0.028-0.002-0.057-0.002-0.085
		c0.001-0.678,0.002-1.356,0.003-2.034c0.001-0.05,0.001-0.1,0.008-0.148c0.023-0.182,0.112-0.286,0.291-0.314
		c0.163-0.026,0.314-0.075,0.451-0.17c0.045-0.032,0.101-0.051,0.152-0.072c0.211-0.087,0.396-0.214,0.575-0.354
		c0.167-0.131,0.345-0.247,0.482-0.411c0.081-0.098,0.163-0.195,0.241-0.294c0.113-0.144,0.235-0.281,0.33-0.44
		c0.097-0.163,0.204-0.321,0.306-0.481c0.02-0.03,0.034-0.063,0.048-0.095c0.129-0.307,0.259-0.611,0.383-0.919
		c0.044-0.111,0.073-0.229,0.112-0.343c0.026-0.08,0.049-0.163,0.087-0.237c0.072-0.141,0.108-0.29,0.137-0.443
		c0.03-0.159,0.074-0.316,0.107-0.475c0.044-0.207,0.084-0.415,0.124-0.623c0.015-0.076,0.018-0.155,0.036-0.23
		c0.096-0.399,0.129-0.809,0.181-1.215c0.019-0.146,0.035-0.294,0.047-0.441c0.036-0.45,0.071-0.901,0.104-1.352
		c0.028-0.401,0.051-0.804,0.074-1.205c0.004-0.063,0.004-0.128-0.009-0.189c-0.022-0.106-0.093-0.173-0.205-0.185
		c-0.056-0.006-0.112-0.005-0.169-0.005c-1.066,0.001-2.134,0.003-3.2,0.005c-0.042,0-0.085,0.001-0.127-0.003
		c-0.182-0.02-0.278-0.116-0.298-0.3c-0.006-0.049-0.005-0.099-0.005-0.148c0.001-0.522,0.002-1.045,0.004-1.567
		c0-0.063,0.002-0.128,0.015-0.19c0.025-0.131,0.107-0.213,0.242-0.23c0.069-0.009,0.141-0.009,0.211-0.009
		c1.597-0.001,3.193-0.001,4.79-0.001C187.315,14.272,187.315,14.274,187.315,14.275z"/>
	<path fill-rule="evenodd" clip-rule="evenodd" fill="#FFFFFF" stroke="#FFFFFF" stroke-width="0.25" stroke-miterlimit="10" d="
		M144.583,14.273c1.301,0,2.601,0,3.901-0.001c0.127,0,0.254-0.004,0.382-0.004c0.063-0.001,0.127-0.002,0.19,0.004
		c0.159,0.018,0.24,0.091,0.272,0.249c0.011,0.056,0.016,0.112,0.015,0.169c-0.004,0.636-0.018,1.271-0.014,1.907
		c0.005,0.644-0.033,1.284-0.108,1.924c-0.029,0.245-0.036,0.493-0.06,0.739c-0.038,0.4-0.079,0.801-0.17,1.195
		c-0.057,0.247-0.085,0.501-0.131,0.751c-0.021,0.118-0.052,0.234-0.082,0.351c-0.014,0.055-0.04,0.106-0.05,0.162
		c-0.063,0.37-0.191,0.722-0.294,1.081c-0.01,0.034-0.016,0.069-0.028,0.103c-0.113,0.289-0.228,0.577-0.342,0.865
		c-0.019,0.046-0.042,0.09-0.06,0.136c-0.122,0.317-0.264,0.624-0.443,0.913c-0.067,0.107-0.121,0.224-0.182,0.335
		c-0.172,0.309-0.366,0.604-0.583,0.882c-0.235,0.3-0.448,0.618-0.732,0.876c-0.1,0.09-0.192,0.188-0.286,0.284
		c-0.321,0.331-0.687,0.607-1.059,0.876c-0.252,0.183-0.523,0.333-0.789,0.494c-0.39,0.236-0.807,0.41-1.229,0.567
		c-0.402,0.15-0.816,0.275-1.24,0.358c-0.104,0.021-0.21,0.035-0.311,0.066c-0.238,0.074-0.482,0.104-0.73,0.121
		c-0.148,0.011-0.295,0.03-0.443,0.042c-0.063,0.006-0.127,0.01-0.19,0.002c-0.138-0.016-0.215-0.097-0.232-0.233
		c-0.003-0.028-0.003-0.057-0.003-0.085c0.002-0.621,0.005-1.243,0.008-1.865c0-0.077-0.002-0.155,0.007-0.232
		c0.017-0.141,0.09-0.212,0.231-0.235c0.042-0.007,0.084-0.009,0.126-0.01c0.255-0.006,0.505-0.048,0.754-0.104
		c0.179-0.04,0.36-0.066,0.543-0.091c0.113-0.016,0.221-0.042,0.324-0.092c0.057-0.027,0.114-0.061,0.175-0.075
		c0.284-0.067,0.545-0.194,0.813-0.304c0.039-0.017,0.08-0.03,0.117-0.051c0.327-0.194,0.671-0.367,0.963-0.613
		c0.308-0.258,0.633-0.5,0.87-0.832c0.062-0.086,0.141-0.158,0.21-0.237c0.246-0.276,0.434-0.594,0.625-0.905
		c0.17-0.275,0.306-0.573,0.453-0.862c0.025-0.05,0.04-0.105,0.059-0.159s0.028-0.111,0.058-0.159
		c0.154-0.258,0.205-0.555,0.313-0.831c0.016-0.039,0.028-0.08,0.038-0.121c0.082-0.328,0.165-0.657,0.245-0.986
		c0.017-0.068,0.033-0.138,0.042-0.208c0.043-0.337,0.104-0.669,0.184-0.999c0.046-0.19,0.046-0.393,0.062-0.59
		c0.021-0.274,0.041-0.549,0.056-0.824c0.018-0.317,0.028-0.635,0.041-0.953c0.002-0.027,0.003-0.057,0-0.084
		c-0.013-0.136-0.084-0.221-0.22-0.248c-0.062-0.013-0.127-0.014-0.19-0.014c-1.815,0-3.632,0-5.447,0
		c-0.269,0-0.537-0.002-0.806-0.005c-0.056-0.001-0.114-0.005-0.167-0.021c-0.132-0.043-0.215-0.132-0.224-0.276
		c-0.002-0.036-0.001-0.071-0.001-0.106c0.002-0.516,0.004-1.031,0.006-1.547c0-0.071-0.001-0.143,0.01-0.212
		c0.025-0.157,0.123-0.251,0.279-0.274c0.042-0.006,0.085-0.006,0.127-0.006c1.448,0,2.896,0,4.345,0
		C144.583,14.271,144.583,14.271,144.583,14.273z"/>
	<path fill-rule="evenodd" clip-rule="evenodd" fill="#FFFFFF" stroke="#FFFFFF" stroke-width="0.25" stroke-miterlimit="10" d="
		M252.402,15.789c0.01,0.353,0.008,0.706,0.03,1.059c0.034,0.535,0.034,1.072,0.099,1.606c0.03,0.259,0.039,0.521,0.049,0.782
		c0.009,0.233,0.037,0.465,0.084,0.693c0.052,0.256,0.085,0.515,0.111,0.775c0.028,0.287,0.091,0.57,0.143,0.855
		c0.034,0.188,0.071,0.375,0.11,0.562c0.032,0.151,0.069,0.303,0.106,0.453c0.038,0.158,0.068,0.319,0.122,0.472
		c0.123,0.352,0.207,0.718,0.377,1.052c0.017,0.032,0.033,0.063,0.043,0.097c0.091,0.302,0.257,0.564,0.425,0.826
		c0.004,0.006,0.008,0.012,0.012,0.018c0.196,0.4,0.519,0.702,0.814,1.022c0.117,0.127,0.279,0.214,0.423,0.314
		c0.087,0.062,0.178,0.115,0.267,0.173c0.012,0.007,0.022,0.019,0.035,0.023c0.241,0.1,0.463,0.244,0.723,0.298
		c0.034,0.007,0.069,0.013,0.103,0.022c0.15,0.044,0.212,0.117,0.227,0.27c0.004,0.049,0.003,0.099,0.003,0.148
		c0,0.685,0,1.37,0,2.056c0,0.275-0.084,0.36-0.358,0.33c-0.146-0.016-0.295-0.047-0.434-0.096c-0.319-0.113-0.645-0.21-0.95-0.358
		c-0.076-0.038-0.152-0.075-0.227-0.115c-0.094-0.048-0.185-0.104-0.281-0.146c-0.173-0.073-0.303-0.205-0.45-0.314
		c-0.249-0.185-0.488-0.383-0.71-0.602c-0.211-0.209-0.415-0.423-0.59-0.664c-0.166-0.229-0.331-0.457-0.497-0.686
		c-0.012-0.017-0.025-0.033-0.036-0.052c-0.125-0.229-0.253-0.455-0.373-0.687c-0.085-0.162-0.157-0.332-0.24-0.495
		c-0.091-0.177-0.161-0.361-0.21-0.554c-0.016-0.061-0.034-0.124-0.065-0.178c-0.036-0.059-0.084-0.114-0.136-0.159
		c-0.06-0.05-0.142-0.029-0.183,0.038c-0.024,0.042-0.042,0.089-0.06,0.135c-0.079,0.204-0.155,0.409-0.235,0.613
		c-0.022,0.06-0.054,0.115-0.082,0.172c-0.054,0.106-0.104,0.216-0.163,0.319c-0.102,0.178-0.21,0.352-0.313,0.528
		c-0.234,0.406-0.526,0.77-0.831,1.121c-0.198,0.229-0.41,0.447-0.63,0.657c-0.153,0.146-0.327,0.268-0.495,0.397
		c-0.145,0.112-0.288,0.229-0.443,0.325c-0.186,0.115-0.382,0.212-0.575,0.314c-0.088,0.046-0.176,0.091-0.268,0.127
		c-0.341,0.135-0.677,0.282-1.039,0.354c-0.021,0.004-0.041,0.008-0.063,0.01c-0.183,0.02-0.264-0.048-0.265-0.236
		c-0.004-0.459-0.002-0.919-0.001-1.378c0-0.269,0-0.536,0.002-0.806c0.001-0.069,0.005-0.142,0.019-0.21
		c0.02-0.099,0.083-0.161,0.185-0.182c0.034-0.007,0.069-0.014,0.104-0.017c0.123-0.012,0.233-0.054,0.34-0.112
		c0.149-0.08,0.301-0.154,0.451-0.234c0.34-0.181,0.633-0.425,0.894-0.704c0.234-0.253,0.465-0.512,0.628-0.821
		c0.102-0.194,0.223-0.378,0.317-0.574c0.129-0.267,0.263-0.531,0.353-0.815c0.042-0.135,0.092-0.268,0.134-0.402
		c0.036-0.114,0.075-0.229,0.1-0.346c0.042-0.2,0.089-0.399,0.161-0.592c0.034-0.091,0.042-0.192,0.06-0.289
		c0.025-0.132,0.034-0.27,0.077-0.395c0.102-0.306,0.125-0.623,0.17-0.937c0.058-0.398,0.104-0.799,0.15-1.198
		c0.027-0.238,0.047-0.478,0.066-0.717c0.018-0.219,0.032-0.437,0.043-0.655c0.028-0.593,0.056-1.186,0.078-1.778
		c0.021-0.558,0.035-1.115,0.053-1.673c0.001-0.049,0.005-0.1,0.019-0.146c0.039-0.126,0.122-0.205,0.259-0.216
		c0.042-0.004,0.085-0.003,0.127-0.003c0.572,0.001,1.145,0.002,1.716,0.003c0.028,0,0.057,0,0.085,0.002
		c0.149,0.015,0.249,0.098,0.278,0.247c0.015,0.075,0.014,0.154,0.014,0.231c0.002,0.346,0.001,0.692,0.001,1.038
		C252.392,15.789,252.397,15.789,252.402,15.789z"/>
	<path fill-rule="evenodd" clip-rule="evenodd" fill="#FFFFFF" stroke="#FFFFFF" stroke-width="0.25" stroke-miterlimit="10" d="
		M82.315,15.789c0.01,0.346,0.014,0.691,0.032,1.037c0.035,0.67,0.074,1.34,0.119,2.009c0.021,0.31,0.057,0.618,0.086,0.928
		c0.004,0.042,0.008,0.085,0.017,0.126c0.068,0.332,0.113,0.668,0.136,1.007c0.009,0.132,0.053,0.262,0.08,0.394
		c0.035,0.165,0.077,0.33,0.099,0.497c0.04,0.303,0.097,0.6,0.193,0.889c0.011,0.034,0.024,0.067,0.03,0.102
		c0.053,0.315,0.168,0.612,0.264,0.915c0.036,0.115,0.08,0.226,0.146,0.328c0.034,0.053,0.069,0.11,0.081,0.171
		c0.052,0.248,0.193,0.454,0.313,0.668c0.125,0.222,0.254,0.44,0.42,0.635c0.22,0.258,0.44,0.511,0.708,0.726
		c0.308,0.248,0.66,0.406,1.009,0.576c0.075,0.036,0.161,0.051,0.242,0.073c0.047,0.014,0.097,0.021,0.144,0.034
		c0.114,0.034,0.175,0.113,0.188,0.23c0.004,0.035,0.004,0.07,0.004,0.106c0,0.72,0,1.44,0,2.161c0,0.021,0,0.042-0.001,0.063
		c-0.013,0.173-0.083,0.246-0.256,0.236c-0.219-0.013-0.437-0.039-0.639-0.135c-0.026-0.012-0.051-0.027-0.078-0.033
		c-0.293-0.061-0.557-0.2-0.826-0.323c-0.23-0.104-0.46-0.215-0.66-0.376c-0.082-0.066-0.176-0.117-0.26-0.182
		c-0.327-0.247-0.639-0.514-0.907-0.824c-0.208-0.24-0.395-0.497-0.588-0.748c-0.186-0.241-0.322-0.514-0.478-0.772
		c-0.219-0.364-0.385-0.754-0.575-1.132c-0.05-0.1-0.073-0.214-0.115-0.318c-0.031-0.078-0.063-0.159-0.111-0.227
		c-0.071-0.099-0.201-0.087-0.265,0.016c-0.011,0.018-0.023,0.037-0.028,0.057c-0.049,0.238-0.207,0.434-0.267,0.667
		c-0.001,0.007-0.004,0.014-0.007,0.021c-0.115,0.218-0.224,0.439-0.345,0.654c-0.118,0.208-0.245,0.412-0.374,0.614
		c-0.061,0.095-0.135,0.181-0.203,0.271c-0.225,0.299-0.454,0.594-0.714,0.865c-0.245,0.256-0.501,0.497-0.783,0.711
		c-0.106,0.081-0.212,0.164-0.319,0.244c-0.354,0.264-0.744,0.464-1.148,0.63c-0.292,0.12-0.582,0.257-0.9,0.302
		c-0.056,0.008-0.112,0.019-0.168,0.018c-0.116-0.002-0.184-0.059-0.206-0.174c-0.011-0.055-0.012-0.112-0.011-0.168
		c0-0.113,0-0.227,0.008-0.34c0.034-0.508-0.011-1.016-0.004-1.524c0.001-0.099,0-0.198,0.011-0.296
		c0.02-0.187,0.087-0.26,0.269-0.308c0.436-0.115,0.821-0.329,1.189-0.585c0.329-0.229,0.588-0.526,0.849-0.824
		c0.079-0.09,0.146-0.19,0.208-0.293c0.161-0.266,0.317-0.533,0.472-0.803c0.028-0.048,0.04-0.105,0.061-0.157
		c0.027-0.065,0.046-0.136,0.084-0.193c0.083-0.127,0.135-0.263,0.167-0.41c0.011-0.048,0.023-0.097,0.042-0.142
		c0.168-0.407,0.243-0.841,0.363-1.261c0.014-0.047,0.028-0.096,0.034-0.145c0.037-0.28,0.093-0.556,0.187-0.824
		c0.022-0.065,0.027-0.139,0.033-0.209c0.026-0.316,0.075-0.631,0.117-0.945c0.069-0.511,0.149-1.021,0.152-1.538
		c0-0.077,0.008-0.154,0.015-0.232c0.051-0.598,0.092-1.196,0.104-1.797c0.011-0.614,0.048-1.228,0.04-1.843
		c0-0.042,0.001-0.085,0.007-0.127c0.027-0.191,0.131-0.286,0.327-0.29c0.233-0.003,0.466,0.001,0.699,0.001
		c0.367-0.001,0.734,0,1.102-0.003c0.25-0.002,0.36,0.098,0.367,0.355c0.005,0.204,0.001,0.409,0.001,0.614c0,0.184,0,0.367,0,0.551
		C82.302,15.789,82.309,15.789,82.315,15.789z"/>
	<path fill-rule="evenodd" clip-rule="evenodd" fill="#FFFFFF" stroke="#FFFFFF" stroke-width="0.25" stroke-miterlimit="10" d="
		M211.367,25.127c2.551,0,5.102,0,7.652-0.001c0.155,0,0.311-0.002,0.466-0.002c0.057-0.001,0.113-0.003,0.169,0.004
		c0.197,0.024,0.296,0.136,0.3,0.342c0.003,0.148-0.003,0.297-0.003,0.445c-0.001,0.409-0.001,0.819-0.001,1.229
		c0,0.063,0.002,0.127-0.003,0.19c-0.008,0.12-0.075,0.199-0.19,0.224c-0.082,0.018-0.168,0.022-0.252,0.022
		c-1.463,0-2.925,0-4.388-0.002c-0.763-0.002-1.525-0.006-2.289-0.008c-0.035,0-0.07-0.002-0.105,0.003
		c-0.118,0.016-0.176,0.073-0.19,0.191c-0.006,0.042-0.005,0.084-0.005,0.127c0.001,1.894,0.002,3.786,0.003,5.681
		c0,0.042,0.001,0.085-0.003,0.127c-0.014,0.155-0.083,0.226-0.24,0.242c-0.049,0.006-0.1,0.004-0.148,0.004
		c-0.537-0.001-1.073-0.001-1.611-0.002c-0.056-0.001-0.113,0-0.168-0.01c-0.133-0.024-0.212-0.109-0.229-0.242
		c-0.006-0.049-0.004-0.1-0.003-0.148c0.005-0.438,0.017-0.876,0.017-1.313c-0.003-1.314-0.01-2.628-0.014-3.942
		c-0.001-0.134,0.006-0.269,0.012-0.401c0.011-0.204-0.056-0.284-0.262-0.304c-0.057-0.005-0.113-0.005-0.17-0.005
		c-1.794,0.001-3.589,0.002-5.383,0.004c-0.403,0-0.806,0.002-1.208,0.002c-0.063,0-0.128-0.003-0.189-0.016
		c-0.114-0.025-0.169-0.092-0.182-0.206c-0.004-0.034-0.002-0.069-0.002-0.105c-0.001-0.572-0.003-1.145-0.004-1.717
		c0-0.021-0.001-0.042-0.001-0.063c0.004-0.21,0.089-0.311,0.297-0.343c0.063-0.01,0.127-0.01,0.19-0.01
		c1.914,0,3.829,0.002,5.744,0.002C209.771,25.126,210.569,25.126,211.367,25.127C211.367,25.126,211.367,25.126,211.367,25.127z"/>
	<path fill-rule="evenodd" clip-rule="evenodd" fill="#FFFFFF" stroke="#FFFFFF" stroke-width="0.25" stroke-miterlimit="10" d="
		M91.779,24.084c0,2.551,0.001,5.102,0,7.652c0,0.444-0.009,0.89-0.012,1.334c0,0.106,0.011,0.212,0.013,0.317
		c0.002,0.078,0.005,0.156-0.004,0.233c-0.019,0.147-0.1,0.227-0.249,0.245c-0.055,0.008-0.112,0.002-0.169,0.002
		c-0.148,0.002-0.296,0.003-0.444,0.004c-0.275,0.001-0.551,0.002-0.827,0.003c-0.126,0-0.253,0.002-0.38,0.001
		c-0.049-0.001-0.1,0.001-0.147-0.01c-0.098-0.022-0.165-0.088-0.185-0.185c-0.019-0.096-0.027-0.195-0.027-0.294
		c0.004-1.073,0.016-2.147,0.017-3.221c0.003-2.07,0-4.141,0.002-6.211c0-0.565,0.005-1.131,0.008-1.695
		c0-0.028,0-0.057-0.001-0.085c-0.014-0.2-0.121-0.312-0.323-0.32c-0.169-0.007-0.339-0.002-0.509-0.002
		c-0.854,0.002-1.709,0.004-2.564,0.006c-0.049,0-0.099,0.001-0.148-0.003c-0.206-0.017-0.301-0.118-0.311-0.328
		c-0.001-0.021,0-0.042,0-0.063c0.002-0.529,0.004-1.06,0.007-1.589c0-0.071,0.001-0.143,0.011-0.212
		c0.016-0.117,0.087-0.192,0.203-0.217c0.068-0.014,0.14-0.019,0.21-0.019c0.982,0.001,1.964,0.004,2.946,0.006
		c0.07,0,0.142,0.003,0.211-0.005c0.167-0.021,0.252-0.111,0.266-0.276c0.002-0.028,0.002-0.057,0.002-0.085
		c-0.002-0.806-0.006-1.61-0.007-2.416c-0.001-0.551,0.001-1.103,0.001-1.653c0-0.092-0.008-0.184-0.012-0.275
		c-0.002-0.057-0.007-0.113-0.001-0.169c0.021-0.192,0.13-0.29,0.323-0.289c0.572,0.002,1.145,0.005,1.717,0.008
		c0.014,0,0.028,0,0.042,0c0.242,0.011,0.351,0.116,0.345,0.358c-0.021,0.869,0.002,1.737-0.006,2.605
		c-0.008,0.827,0,1.654,0.001,2.48C91.78,21.173,91.779,22.629,91.779,24.084z"/>
	<path fill-rule="evenodd" clip-rule="evenodd" fill="#FFFFFF" stroke="#FFFFFF" stroke-width="0.25" stroke-miterlimit="10" d="
		M259.454,24.087c0-2.946,0-5.893,0-8.839c-0.001-0.148-0.011-0.296-0.015-0.444c-0.002-0.07-0.006-0.142,0.004-0.211
		c0.027-0.21,0.142-0.314,0.353-0.319c0.22-0.005,0.438-0.005,0.657-0.005c0.318,0.001,0.637,0.002,0.954,0.004
		c0.063,0.001,0.128-0.001,0.19,0.008c0.152,0.02,0.242,0.104,0.27,0.256c0.01,0.055,0.011,0.112,0.011,0.168
		c-0.003,1.943-0.006,3.887-0.01,5.829c0,0.106-0.002,0.212-0.002,0.318c-0.001,0.05-0.002,0.1,0.004,0.148
		c0.016,0.151,0.09,0.224,0.245,0.241c0.028,0.004,0.057,0.004,0.085,0.004c0.17,0.001,0.339,0.004,0.508,0.002
		c0.41-0.004,0.819-0.011,1.229-0.016c0.035-0.001,0.071-0.001,0.105,0.004c0.112,0.017,0.176,0.079,0.194,0.193
		c0.007,0.041,0.008,0.084,0.008,0.126c0,0.572-0.001,1.145-0.001,1.717c-0.001,0.057-0.001,0.114-0.01,0.169
		c-0.021,0.132-0.09,0.197-0.226,0.215c-0.048,0.008-0.099,0.007-0.147,0.007c-0.438,0.001-0.876,0.002-1.314,0.001
		c-0.092,0-0.184-0.007-0.274-0.011c-0.05-0.002-0.1-0.009-0.148-0.005c-0.129,0.009-0.211,0.075-0.237,0.202
		c-0.016,0.075-0.019,0.154-0.019,0.231c0,1.611,0.001,3.223,0.001,4.833c0,1.421,0,2.841,0,4.261c0,0.1,0.004,0.198,0.004,0.297
		c-0.001,0.057-0.002,0.113-0.012,0.169c-0.021,0.115-0.09,0.192-0.207,0.214c-0.082,0.016-0.168,0.022-0.252,0.022
		c-0.36-0.002-0.721-0.009-1.081-0.012c-0.148-0.002-0.297,0-0.444,0.001c-0.028,0-0.057,0.003-0.085,0.002
		c-0.241-0.004-0.345-0.104-0.358-0.349c-0.003-0.042-0.001-0.085,0-0.127c0.007-0.459,0.02-0.918,0.021-1.378
		C259.455,29.373,259.454,26.73,259.454,24.087L259.454,24.087z"/>
	<path fill-rule="evenodd" clip-rule="evenodd" fill="#FFFFFF" stroke="#FFFFFF" stroke-width="0.25" stroke-miterlimit="10" d="
		M153.109,24.168c0-3.017,0-6.033,0-9.05c0-0.12-0.003-0.24-0.004-0.36c0-0.063-0.002-0.128,0.004-0.19
		c0.02-0.213,0.096-0.288,0.308-0.298c0.106-0.005,0.212-0.001,0.317-0.001c0.46,0.001,0.919,0.002,1.378,0.003
		c0.05,0,0.1-0.003,0.148,0.003c0.159,0.018,0.26,0.109,0.285,0.267c0.009,0.055,0.008,0.112,0.008,0.169
		c0,4.691-0.001,9.382-0.001,14.074c0,1.547,0,3.094,0.001,4.641c0,0.1,0.008,0.198,0.007,0.297
		c-0.005,0.185-0.093,0.289-0.273,0.322c-0.068,0.013-0.141,0.014-0.211,0.014c-0.522,0-1.045-0.002-1.568-0.003
		c-0.063,0-0.127,0-0.189-0.008c-0.102-0.014-0.169-0.074-0.191-0.174c-0.016-0.067-0.021-0.139-0.021-0.209
		c-0.001-3.165-0.001-6.331-0.001-9.496C153.106,24.168,153.108,24.168,153.109,24.168z"/>
	<path fill-rule="evenodd" clip-rule="evenodd" fill="#FFFFFF" stroke="#FFFFFF" stroke-width="0.25" stroke-miterlimit="10" d="
		M195.66,24.168c0-2.141,0.001-4.281,0-6.422c0-1.003-0.002-2.006-0.002-3.009c0-0.085,0.002-0.171,0.019-0.253
		c0.026-0.129,0.104-0.191,0.235-0.206c0.05-0.005,0.1-0.004,0.148-0.004c0.537-0.001,1.073-0.003,1.611-0.003
		c0.285,0,0.385,0.094,0.393,0.375c0.005,0.162,0,0.325,0,0.487c0,4.521,0,9.042,0,13.563c0,1.526,0,3.052,0,4.578
		c0,0.12,0.006,0.24,0.006,0.36c0,0.057,0,0.113-0.011,0.168c-0.026,0.137-0.118,0.224-0.258,0.245
		c-0.055,0.009-0.112,0.008-0.169,0.008c-0.522,0.001-1.046,0-1.568,0c-0.049,0-0.1,0.001-0.147-0.005
		c-0.145-0.017-0.229-0.097-0.256-0.241c-0.009-0.049-0.009-0.099-0.009-0.148c0.002-0.89,0.007-1.779,0.008-2.67
		C195.661,28.718,195.66,26.443,195.66,24.168L195.66,24.168z"/>
	<path fill-rule="evenodd" clip-rule="evenodd" fill="#FFFFFF" stroke="#FFFFFF" stroke-width="0.25" stroke-miterlimit="10" d="
		M176.792,18.864c0,0.24,0.001,0.48-0.001,0.721c0,0.07,0,0.142-0.015,0.21c-0.034,0.169-0.135,0.239-0.304,0.224
		c-0.147-0.014-0.295-0.028-0.442-0.041c-0.415-0.037-0.83-0.07-1.245-0.111c-0.246-0.024-0.493-0.046-0.734-0.094
		c-0.318-0.063-0.638-0.125-0.953-0.199c-0.35-0.082-0.688-0.21-1.031-0.318c-0.081-0.025-0.162-0.05-0.242-0.076
		c-0.081-0.025-0.165-0.045-0.241-0.081c-0.159-0.075-0.318-0.151-0.492-0.19c-0.027-0.007-0.055-0.017-0.078-0.031
		c-0.307-0.188-0.644-0.325-0.927-0.552c-0.033-0.026-0.068-0.053-0.106-0.069c-0.206-0.09-0.362-0.244-0.518-0.397
		c-0.16-0.159-0.316-0.323-0.474-0.485c-0.113-0.117-0.206-0.124-0.327-0.009c-0.138,0.131-0.271,0.269-0.405,0.403
		c-0.185,0.186-0.383,0.354-0.613,0.482c-0.153,0.086-0.293,0.196-0.443,0.29c-0.096,0.059-0.199,0.105-0.299,0.158
		c-0.074,0.04-0.148,0.081-0.223,0.122c-0.043,0.023-0.083,0.058-0.13,0.071c-0.313,0.088-0.592,0.267-0.911,0.34
		c-0.089,0.021-0.173,0.063-0.261,0.09c-0.121,0.036-0.244,0.067-0.366,0.102c-0.115,0.031-0.233,0.056-0.345,0.099
		c-0.133,0.053-0.269,0.084-0.408,0.105c-0.175,0.027-0.35,0.056-0.521,0.099c-0.289,0.073-0.584,0.102-0.879,0.134
		c-0.371,0.041-0.745,0.059-1.119,0.085c-0.168,0.013-0.338,0.021-0.507,0.03c-0.05,0.003-0.1,0.008-0.148,0.005
		c-0.151-0.007-0.231-0.078-0.257-0.229c-0.01-0.056-0.01-0.112-0.011-0.169c0-0.452,0-0.904,0.001-1.356
		c0-0.084-0.002-0.17,0.01-0.253c0.021-0.142,0.095-0.213,0.234-0.232c0.057-0.008,0.113-0.01,0.17-0.009
		c0.39,0.006,0.773-0.039,1.156-0.117c0.228-0.046,0.462-0.068,0.693-0.091c0.184-0.018,0.363-0.044,0.542-0.091
		c0.253-0.065,0.507-0.126,0.76-0.191c0.096-0.025,0.189-0.059,0.282-0.091c0.093-0.033,0.183-0.077,0.277-0.104
		c0.116-0.035,0.227-0.076,0.324-0.15c0.033-0.025,0.072-0.046,0.111-0.06c0.393-0.141,0.72-0.384,1.04-0.642
		c0.418-0.338,0.691-0.777,0.89-1.268c0.077-0.191,0.085-0.399,0.109-0.603c0.006-0.056,0.005-0.113,0.015-0.169
		c0.028-0.179,0.127-0.275,0.307-0.298c0.049-0.006,0.099-0.008,0.147-0.002c0.176,0.021,0.352,0.015,0.528,0.007
		c0.19-0.008,0.381,0.001,0.572-0.001c0.226-0.001,0.451-0.005,0.677-0.007c0.078,0,0.156-0.002,0.233,0.008
		c0.165,0.021,0.25,0.104,0.279,0.271c0.011,0.063,0.012,0.127,0.015,0.19c0.011,0.199,0.044,0.393,0.131,0.574
		c0.019,0.038,0.036,0.078,0.046,0.118c0.063,0.27,0.228,0.481,0.382,0.702c0.256,0.366,0.605,0.627,0.969,0.873
		c0.17,0.116,0.361,0.191,0.54,0.288c0.227,0.122,0.464,0.207,0.704,0.288c0.174,0.058,0.354,0.097,0.529,0.151
		c0.454,0.142,0.92,0.214,1.394,0.251c0.069,0.006,0.142,0.016,0.208,0.035c0.42,0.122,0.852,0.116,1.282,0.129
		c0.05,0.001,0.099-0.005,0.148-0.003c0.167,0.009,0.246,0.083,0.262,0.246c0.005,0.056,0.003,0.112,0.004,0.169
		c0,0.24,0,0.48,0,0.721C176.789,18.864,176.79,18.864,176.792,18.864z"/>
	<g>
		<g>
			<path fill="#FFFFFF" stroke="#FFFFFF" stroke-width="0.25" stroke-miterlimit="10" d="M81.457,48.079
				c0,1.578-1.098,2.367-3.294,2.367c-0.802,0-1.514-0.092-2.136-0.275l0.224-1.004c0.716,0.247,1.396,0.371,2.041,0.371
				c1.45,0,2.175-0.409,2.175-1.229c0-0.413-0.188-0.768-0.563-1.062c-0.251-0.196-0.746-0.459-1.484-0.787
				c-0.776-0.345-1.32-0.663-1.631-0.953c-0.431-0.4-0.646-0.903-0.646-1.509c0-0.632,0.219-1.146,0.659-1.542
				c0.49-0.443,1.183-0.665,2.079-0.665c1.015,0,1.71,0.066,2.085,0.198l-0.154,1.017c-0.648-0.204-1.336-0.307-2.066-0.307
				c-1.096,0-1.644,0.366-1.644,1.1c0,0.354,0.157,0.65,0.473,0.89c0.205,0.149,0.657,0.375,1.356,0.678
				c0.797,0.346,1.373,0.674,1.727,0.985C81.191,46.821,81.457,47.397,81.457,48.079z"/>
			<path fill="#FFFFFF" stroke="#FFFFFF" stroke-width="0.25" stroke-miterlimit="10" d="M89.037,49.27l-0.039,0.966h-5.155
				c0.06-1.322,0.089-2.78,0.089-4.375c0-1.501-0.03-2.819-0.089-3.953h4.835l-0.051,0.953c-1.173-0.052-2.416-0.077-3.729-0.077
				c0.026,0.661,0.039,1.555,0.039,2.68c1.134,0,2.145-0.025,3.032-0.076v0.953c-0.946-0.038-1.957-0.058-3.032-0.058
				c0,1.096,0.019,2.123,0.058,3.083C86.41,49.365,87.758,49.333,89.037,49.27z"/>
			<path fill="#FFFFFF" stroke="#FFFFFF" stroke-width="0.25" stroke-miterlimit="10" d="M98.465,45.943
				c0,1.377-0.403,2.479-1.209,3.304c-0.806,0.825-1.737,1.237-2.795,1.237c-1.015,0-1.905-0.378-2.67-1.136
				c-0.766-0.756-1.148-1.778-1.148-3.066c0-1.395,0.403-2.5,1.209-3.316c0.806-0.816,1.738-1.226,2.795-1.226
				c1.015,0,1.905,0.379,2.67,1.136C98.083,43.633,98.465,44.655,98.465,45.943z M97.327,46.09c0-1.1-0.289-1.951-0.867-2.555
				c-0.578-0.604-1.244-0.905-1.999-0.905c-0.7,0-1.322,0.317-1.868,0.953c-0.546,0.635-0.819,1.483-0.819,2.546
				c0,1.104,0.291,1.958,0.873,2.562s1.248,0.905,1.999,0.905c0.699,0,1.321-0.322,1.864-0.966
				C97.055,47.985,97.327,47.14,97.327,46.09z"/>
			<path fill="#FFFFFF" stroke="#FFFFFF" stroke-width="0.25" stroke-miterlimit="10" d="M107.529,41.907
				c-0.017,0.806-0.03,1.559-0.039,2.258c-0.008,0.699-0.013,1.352-0.013,1.957c0,2.857-1.128,4.286-3.384,4.286
				c-0.588,0-1.093-0.085-1.513-0.253c-0.42-0.169-0.765-0.427-1.036-0.774c-0.271-0.347-0.469-0.785-0.595-1.314
				c-0.126-0.528-0.189-1.153-0.189-1.874c0-0.631-0.004-1.302-0.013-2.012s-0.021-1.468-0.038-2.273h1.215
				c-0.051,1.624-0.077,2.897-0.077,3.818c0,0.742,0.036,1.347,0.109,1.813c0.072,0.467,0.202,0.856,0.387,1.167
				c0.185,0.312,0.419,0.532,0.7,0.662s0.64,0.195,1.075,0.195c0.456,0,0.827-0.065,1.113-0.195s0.518-0.345,0.697-0.646
				c0.179-0.3,0.307-0.686,0.384-1.157c0.077-0.471,0.115-1.088,0.115-1.852c0-0.452-0.008-0.992-0.022-1.622
				c-0.015-0.628-0.038-1.356-0.067-2.184H107.529z"/>
			<path fill="#FFFFFF" stroke="#FFFFFF" stroke-width="0.25" stroke-miterlimit="10" d="M115.416,49.295l-0.039,0.94h-5.034
				c0.051-1.054,0.077-2.512,0.077-4.375c0-1.604-0.025-2.922-0.077-3.953h1.189c-0.051,0.861-0.077,2.179-0.077,3.953
				c0,1.458-0.023,2.626-0.07,3.505C112.666,49.365,114.009,49.342,115.416,49.295z"/>
			<path fill="#FFFFFF" stroke="#FFFFFF" stroke-width="0.25" stroke-miterlimit="10" d="M126.028,41.907l-0.032,0.901
				c-0.844-0.042-1.716-0.063-2.616-0.063c-0.009,0.818-0.013,1.856-0.013,3.115c0,1.39,0.021,2.848,0.064,4.375h-1.17
				c0.051-1.454,0.077-2.913,0.077-4.375c0-1.241-0.013-2.279-0.038-3.115c-0.631,0-1.519,0.025-2.661,0.076l0.032-0.914H126.028z"
				/>
			<path fill="#FFFFFF" stroke="#FFFFFF" stroke-width="0.25" stroke-miterlimit="10" d="M133.115,49.27l-0.039,0.966h-5.155
				c0.06-1.322,0.089-2.78,0.089-4.375c0-1.501-0.03-2.819-0.089-3.953h4.835l-0.051,0.953c-1.172-0.052-2.416-0.077-3.729-0.077
				c0.026,0.661,0.039,1.555,0.039,2.68c1.134,0,2.145-0.025,3.032-0.076v0.953c-0.947-0.038-1.957-0.058-3.032-0.058
				c0,1.096,0.019,2.123,0.058,3.083C130.488,49.365,131.836,49.333,133.115,49.27z"/>
			<path fill="#FFFFFF" stroke="#FFFFFF" stroke-width="0.25" stroke-miterlimit="10" d="M140.932,49.218l-0.083,0.953
				c-0.525,0.158-1.096,0.237-1.714,0.237c-1.467,0-2.569-0.402-3.307-1.206s-1.106-1.786-1.106-2.945
				c0-1.216,0.412-2.264,1.234-3.145c0.823-0.88,1.93-1.32,3.32-1.32c0.384,0,0.789,0.058,1.215,0.173l-0.179,1.017
				c-0.49-0.153-0.927-0.23-1.311-0.23c-1.032,0-1.814,0.32-2.348,0.96s-0.799,1.422-0.799,2.348c0,0.942,0.307,1.75,0.921,2.424
				s1.462,1.011,2.546,1.011C139.733,49.493,140.271,49.401,140.932,49.218z"/>
			<path fill="#FFFFFF" stroke="#FFFFFF" stroke-width="0.25" stroke-miterlimit="10" d="M149.17,50.235h-1.215
				c0.043-1.476,0.064-2.798,0.064-3.966h-3.832c0,0.946,0.021,2.269,0.064,3.966h-1.216c0.06-1.557,0.089-3.016,0.089-4.375
				c0-1.425-0.029-2.742-0.089-3.953h1.216c-0.052,1.22-0.077,2.404-0.077,3.556h3.857c0-0.925-0.025-2.11-0.077-3.556h1.215
				c-0.063,1.186-0.096,2.503-0.096,3.953C149.074,47.45,149.106,48.909,149.17,50.235z"/>
			<path fill="#FFFFFF" stroke="#FFFFFF" stroke-width="0.25" stroke-miterlimit="10" d="M158.548,50.235h-0.896
				c0-0.073-0.699-1.094-2.099-3.064c-1.463-2.068-2.296-3.373-2.501-3.914h-0.063c0.077,1.027,0.114,1.908,0.114,2.642
				c0,1.433,0.033,2.878,0.097,4.337h-1.075c0.072-1.386,0.109-2.845,0.109-4.375c0-1.506-0.037-2.823-0.109-3.953h1.229
				c0,0.119,0.645,1.092,1.932,2.916c1.348,1.919,2.115,3.169,2.303,3.749h0.064c-0.073-1.041-0.109-1.924-0.109-2.648
				c0-1.578-0.03-2.917-0.09-4.017h1.095c-0.073,1.13-0.109,2.447-0.109,3.953C158.438,47.391,158.475,48.85,158.548,50.235z"/>
			<path fill="#FFFFFF" stroke="#FFFFFF" stroke-width="0.25" stroke-miterlimit="10" d="M168.756,45.943
				c0,1.377-0.402,2.479-1.208,3.304c-0.807,0.825-1.738,1.237-2.796,1.237c-1.015,0-1.905-0.378-2.67-1.136
				c-0.766-0.756-1.148-1.778-1.148-3.066c0-1.395,0.402-2.5,1.209-3.316c0.806-0.816,1.737-1.226,2.795-1.226
				c1.015,0,1.905,0.379,2.671,1.136C168.373,43.633,168.756,44.655,168.756,45.943z M167.617,46.09c0-1.1-0.288-1.951-0.866-2.555
				s-1.244-0.905-1.999-0.905c-0.699,0-1.322,0.317-1.868,0.953c-0.545,0.635-0.818,1.483-0.818,2.546
				c0,1.104,0.291,1.958,0.873,2.562s1.248,0.905,1.999,0.905c0.699,0,1.321-0.322,1.864-0.966
				C167.346,47.985,167.617,47.14,167.617,46.09z"/>
			<path fill="#FFFFFF" stroke="#FFFFFF" stroke-width="0.25" stroke-miterlimit="10" d="M180.667,50.235h-1.216
				c0.043-1.476,0.064-2.798,0.064-3.966h-3.832c0,0.946,0.021,2.269,0.063,3.966h-1.215c0.06-1.557,0.09-3.016,0.09-4.375
				c0-1.425-0.03-2.742-0.09-3.953h1.215c-0.051,1.22-0.076,2.404-0.076,3.556h3.857c0-0.925-0.025-2.11-0.077-3.556h1.216
				c-0.064,1.186-0.097,2.503-0.097,3.953C180.57,47.45,180.603,48.909,180.667,50.235z"/>
			<path fill="#FFFFFF" stroke="#FFFFFF" stroke-width="0.25" stroke-miterlimit="10" d="M190.875,45.943
				c0,1.377-0.403,2.479-1.209,3.304s-1.737,1.237-2.795,1.237c-1.015,0-1.905-0.378-2.67-1.136
				c-0.767-0.756-1.149-1.778-1.149-3.066c0-1.395,0.403-2.5,1.21-3.316c0.806-0.816,1.737-1.226,2.795-1.226
				c1.015,0,1.905,0.379,2.671,1.136C190.492,43.633,190.875,44.655,190.875,45.943z M189.736,46.09c0-1.1-0.289-1.951-0.866-2.555
				c-0.578-0.604-1.244-0.905-1.999-0.905c-0.699,0-1.322,0.317-1.868,0.953c-0.545,0.635-0.818,1.483-0.818,2.546
				c0,1.104,0.291,1.958,0.873,2.562s1.248,0.905,1.999,0.905c0.699,0,1.32-0.322,1.864-0.966
				C189.465,47.985,189.736,47.14,189.736,46.09z"/>
			<path fill="#FFFFFF" stroke="#FFFFFF" stroke-width="0.25" stroke-miterlimit="10" d="M198.333,49.295l-0.038,0.94h-5.033
				c0.051-1.054,0.076-2.512,0.076-4.375c0-1.604-0.025-2.922-0.076-3.953h1.189c-0.052,0.861-0.077,2.179-0.077,3.953
				c0,1.458-0.023,2.626-0.07,3.505C195.583,49.365,196.926,49.342,198.333,49.295z"/>
			<path fill="#FFFFFF" stroke="#FFFFFF" stroke-width="0.25" stroke-miterlimit="10" d="M206.809,45.771
				c0,1.211-0.387,2.272-1.161,3.186c-0.773,0.912-1.841,1.368-3.201,1.368c-0.443,0-1.184-0.029-2.22-0.089
				c0.064-1.322,0.097-2.78,0.097-4.375c0-1.501-0.032-2.819-0.097-3.953h0.704c0.17,0,0.431-0.007,0.78-0.02s0.58-0.02,0.69-0.02
				c1.506,0,2.616,0.37,3.333,1.11C206.45,43.719,206.809,44.648,206.809,45.771z M205.696,46.059c0-0.947-0.303-1.738-0.906-2.373
				c-0.603-0.636-1.536-0.953-2.798-0.953c-0.179,0-0.424,0.021-0.735,0.063c0.034,0.994,0.051,2.015,0.051,3.064
				c0,1.151,0.023,2.319,0.07,3.505c0.341,0.068,0.67,0.103,0.985,0.103c1.126,0,1.962-0.334,2.511-1.002
				C205.422,47.799,205.696,46.996,205.696,46.059z"/>
			<path fill="#FFFFFF" stroke="#FFFFFF" stroke-width="0.25" stroke-miterlimit="10" d="M210.41,50.235h-1.216
				c0.064-1.382,0.097-2.84,0.097-4.375c0-1.51-0.032-2.828-0.097-3.953h1.216c-0.061,1.164-0.09,2.481-0.09,3.953
				C210.32,47.403,210.35,48.862,210.41,50.235z"/>
			<path fill="#FFFFFF" stroke="#FFFFFF" stroke-width="0.25" stroke-miterlimit="10" d="M219.787,50.235h-0.896
				c0-0.073-0.699-1.094-2.098-3.064c-1.463-2.068-2.297-3.373-2.501-3.914h-0.064c0.077,1.027,0.115,1.908,0.115,2.642
				c0,1.433,0.032,2.878,0.097,4.337h-1.075c0.072-1.386,0.108-2.845,0.108-4.375c0-1.506-0.036-2.823-0.108-3.953h1.229
				c0,0.119,0.644,1.092,1.932,2.916c1.348,1.919,2.115,3.169,2.303,3.749h0.063c-0.072-1.041-0.108-1.924-0.108-2.648
				c0-1.578-0.03-2.917-0.09-4.017h1.094c-0.072,1.13-0.108,2.447-0.108,3.953C219.679,47.391,219.715,48.85,219.787,50.235z"/>
			<path fill="#FFFFFF" stroke="#FFFFFF" stroke-width="0.25" stroke-miterlimit="10" d="M228.819,50.063
				c-0.699,0.23-1.405,0.346-2.118,0.346c-1.496,0-2.625-0.4-3.387-1.2c-0.761-0.799-1.142-1.787-1.142-2.964
				c0-1.19,0.414-2.229,1.241-3.118c0.827-0.89,1.974-1.334,3.441-1.334c0.528,0,1.029,0.062,1.503,0.186l-0.16,1.062
				c-0.703-0.171-1.271-0.256-1.701-0.256c-1.032,0-1.822,0.313-2.37,0.937c-0.548,0.625-0.821,1.4-0.821,2.326
				c0,0.929,0.313,1.743,0.943,2.443c0.628,0.699,1.517,1.049,2.664,1.049c0.209,0,0.521-0.032,0.939-0.096
				c-0.072-0.444-0.108-0.96-0.108-1.549c0-0.494-0.029-0.979-0.089-1.451h1.164c-0.034,0.563-0.052,1.157-0.052,1.784
				C228.768,48.495,228.785,49.107,228.819,50.063z"/>
			<path fill="#FFFFFF" stroke="#FFFFFF" stroke-width="0.25" stroke-miterlimit="10" d="M236.284,48.079
				c0,1.578-1.099,2.367-3.295,2.367c-0.802,0-1.514-0.092-2.137-0.275l0.225-1.004c0.717,0.247,1.396,0.371,2.04,0.371
				c1.45,0,2.175-0.409,2.175-1.229c0-0.413-0.188-0.768-0.563-1.062c-0.252-0.196-0.746-0.459-1.484-0.787
				c-0.776-0.345-1.319-0.663-1.631-0.953c-0.431-0.4-0.646-0.903-0.646-1.509c0-0.632,0.221-1.146,0.659-1.542
				c0.49-0.443,1.184-0.665,2.079-0.665c1.015,0,1.71,0.066,2.085,0.198l-0.153,1.017c-0.648-0.204-1.337-0.307-2.066-0.307
				c-1.096,0-1.644,0.366-1.644,1.1c0,0.354,0.157,0.65,0.474,0.89c0.204,0.149,0.656,0.375,1.355,0.678
				c0.798,0.346,1.373,0.674,1.728,0.985C236.017,46.821,236.284,47.397,236.284,48.079z"/>
			<path fill="#FFFFFF" stroke="#FFFFFF" stroke-width="0.25" stroke-miterlimit="10" d="M239.962,49.506
				c0,0.567-0.147,1.099-0.441,1.596s-0.744,1.01-1.35,1.538l-0.384-0.422c0.647-0.725,0.972-1.395,0.972-2.008
				c-0.366-0.146-0.55-0.414-0.55-0.807c0-0.247,0.076-0.464,0.23-0.648c0.153-0.187,0.382-0.279,0.685-0.279
				c0.247,0,0.448,0.101,0.604,0.301C239.884,48.978,239.962,49.22,239.962,49.506z"/>
			<path fill="#FFFFFF" stroke="#FFFFFF" stroke-width="0.25" stroke-miterlimit="10" d="M247.126,50.235h-1.216
				c0.064-1.382,0.096-2.84,0.096-4.375c0-1.51-0.031-2.828-0.096-3.953h1.216c-0.06,1.164-0.09,2.481-0.09,3.953
				C247.036,47.403,247.066,48.862,247.126,50.235z"/>
			<path fill="#FFFFFF" stroke="#FFFFFF" stroke-width="0.25" stroke-miterlimit="10" d="M255.141,50.235h-1.164
				c0.094-1.122,0.141-2.346,0.141-3.672c0-0.656-0.134-1.105-0.399-1.347c-0.267-0.24-0.647-0.361-1.143-0.361
				c-0.605,0-1.164,0.22-1.676,0.659c0,1.454,0.009,3.027,0.026,4.721h-1.165c0.073-1.45,0.109-2.499,0.109-3.147
				c0-0.998-0.094-1.966-0.282-2.903l1.126-0.16l0.122,0.78h0.051c0.632-0.571,1.307-0.857,2.027-0.857
				c0.708,0,1.257,0.157,1.645,0.471c0.388,0.313,0.582,0.87,0.582,1.672c0,0.081-0.005,0.241-0.013,0.48
				c-0.009,0.238-0.014,0.398-0.014,0.479C255.114,47.762,255.123,48.823,255.141,50.235z"/>
			<path fill="#FFFFFF" stroke="#FFFFFF" stroke-width="0.25" stroke-miterlimit="10" d="M262.017,49.257l-0.063,0.856
				c-0.346,0.196-0.809,0.295-1.389,0.295c-1.104,0-1.948-0.306-2.532-0.915c-0.584-0.61-0.877-1.346-0.877-2.207
				c0-0.912,0.307-1.697,0.921-2.354c0.614-0.657,1.427-0.985,2.438-0.985c0.508,0,0.921,0.052,1.241,0.153l-0.173,1.005
				c-0.448-0.167-0.902-0.25-1.362-0.25c-0.605,0-1.088,0.211-1.445,0.634c-0.358,0.422-0.538,0.95-0.538,1.586
				c0,0.69,0.214,1.267,0.64,1.727c0.427,0.461,1.03,0.691,1.811,0.691C261.006,49.493,261.449,49.414,262.017,49.257z"/>
			<path fill="#FFFFFF" stroke="#FFFFFF" stroke-width="0.25" stroke-miterlimit="10" d="M265.503,49.295
				c0,0.251-0.084,0.474-0.253,0.665c-0.168,0.192-0.402,0.288-0.7,0.288c-0.252,0-0.447-0.083-0.585-0.25
				c-0.14-0.166-0.208-0.364-0.208-0.595c0-0.247,0.085-0.464,0.256-0.648c0.17-0.187,0.407-0.279,0.71-0.279
				c0.251,0,0.444,0.079,0.578,0.237C265.436,48.87,265.503,49.064,265.503,49.295z"/>
		</g>
	</g>
	<path fill="#FFFFFF" stroke="#FFFFFF" stroke-width="0.25" stroke-miterlimit="10" d="M42.225,13.182
		c-0.765-1.713-3.345-0.538-3.345-0.538C41.051,14.024,42.225,13.182,42.225,13.182 M37.959,12.928c0.271,0,0.485-0.218,0.485-0.491
		c0-0.266-0.215-0.483-0.485-0.483c-0.269,0-0.487,0.218-0.487,0.483C37.472,12.71,37.69,12.928,37.959,12.928 M43.865,13.35
		c0,0-0.933-0.02-1.787,0.494l2.747,0.041c0.046-0.037,0.05-0.037,0.098-0.075c0,0-1.368-3.703-5.012-4.16
		C39.911,9.649,40.791,12.392,43.865,13.35 M45.792,14.067c0-0.199-0.162-0.362-0.361-0.362c-0.201,0-0.364,0.163-0.364,0.362
		c0,0.201,0.163,0.365,0.364,0.365C45.631,14.433,45.792,14.269,45.792,14.067 M31.125,13.885l2.747-0.041
		c-0.853-0.514-1.787-0.494-1.787-0.494c3.075-0.958,3.953-3.7,3.953-3.7c-3.641,0.457-5.011,4.16-5.011,4.16
		C31.076,13.848,31.079,13.848,31.125,13.885 M30.242,14.269c0,0.2,0.165,0.362,0.365,0.362c0.202,0,0.364-0.162,0.364-0.362
		c0-0.201-0.162-0.367-0.364-0.367C30.407,13.901,30.242,14.067,30.242,14.269 M30.469,17.198c-1.981-1.409-4.868-0.32-4.868-0.32
		c2.563-1.95,2.546-5.07,2.546-5.07c-3.266,1.674-3.282,5.625-3.282,5.625C28.858,18.617,30.469,17.198,30.469,17.198 M31.57,16.425
		L31.6,15.09c-1.485-0.438-2.991-0.153-2.991-0.153c2.867-1.477,3.387-4.552,3.387-4.552c-3.503,1.081-4.211,4.968-4.211,4.968
		C29.404,16.155,30.665,16.403,31.57,16.425 M47.39,14.719c0,0-1.191-0.365-2.697,0.149l-0.001,1.372
		c0.916-0.018,1.848-0.241,3.533-1.129c0,0-0.798-3.869-4.328-4.865C43.896,10.246,44.492,13.307,47.39,14.719 M33.723,13.343
		c0,0,1.207,0.798,3.325-0.664C37.047,12.679,34.426,11.603,33.723,13.343 M52.085,31.88h-1.532v1.939h1.532V31.88z M47.948,18.569
		l-0.793,0.946l4.292,4.292l0.867-0.869L47.948,18.569z M56.298,18.441l-3.932-3.933l-3.525,3.83l3.78,3.73L56.298,18.441z
		 M24.237,18.005c0,0.2,0.162,0.362,0.364,0.362c0.201,0,0.362-0.162,0.362-0.362s-0.162-0.367-0.362-0.367
		C24.399,17.638,24.237,17.805,24.237,18.005 M53.355,22.147c0.673,0.192,1.505,0.336,2.522,0.378c0,0,0.463-1.373,0.26-3.043
		l-1.327,1.271c0.145,0.338,0.325,0.677,0.549,1.015c0,0-0.367-0.304-0.952-0.631L53.355,22.147z M52.163,41.382H50.63v1.941h1.532
		V41.382z M49.931,16.206l0.887-0.9c-0.376-1.275-1.143-2.813-3.038-3.729C47.78,11.577,47.701,14.306,49.931,16.206 M57.915,29.802
		c0,0.201,0.162,0.364,0.365,0.364c0.199,0,0.363-0.163,0.363-0.364c0-0.203-0.164-0.364-0.363-0.364
		C58.077,29.438,57.915,29.599,57.915,29.802 M53.131,11.761c1.146,0.568,2.07-0.027,2.07-0.027c1.28-0.627,2.207,0.243,2.207,0.243
		c0.89,0.695,0.742,1.613,0.742,1.613c0,0.703-0.201,0.751-0.201,0.751c-0.424,0.293-0.32-0.202-0.32-0.202
		c0.012-0.006,0.097-0.348,0.097-0.348c0.168-1.585-1.257-1.813-1.257-1.813c-1.51-0.266-1.886,1.13-1.886,1.13
		c-0.097,0.384-0.104,0.726-0.063,1.025l-1.885-1.885l0.089,1.595l4.214,4.216h1.507l-1.53-1.53
		c0.809,0.254,1.518,0.279,1.518,0.279c2.152-0.13,2.376-2.19,2.376-2.19c0.569-2.148-1.47-3.887-1.47-3.887
		c-1.358-1.169-3.417-1.266-3.417-1.266c-2.927-0.337-3.963-2.207-3.963-2.207C51.615,8.11,51.704,9.37,51.704,9.37
		C51.901,11.309,53.131,11.761,53.131,11.761 M58.431,29.205c0,0,2.454-3.097,0.946-6.443c0,0-1.958,2.429-1.176,5.554
		c0,0-1.574-2.655-4.001-2.793C54.2,25.522,54.576,27.636,58.431,29.205 M55.945,23.523c0.201,0,0.362-0.165,0.362-0.363
		c0-0.201-0.162-0.366-0.362-0.366s-0.367,0.165-0.367,0.366C55.578,23.358,55.744,23.523,55.945,23.523 M48.61,17.627l1.103-1.141
		c-0.939-0.218-2.705-0.528-4.127,0.533C45.585,17.02,46.318,17.85,48.61,17.627 M57.445,25.755c0,0,1.879-3.476-0.185-6.512
		c0,0-1.51,2.73-0.196,5.675c0,0-2.013-2.341-4.421-2.057C52.643,22.861,53.375,24.877,57.445,25.755 M44.578,52.302
		c0,0.2,0.162,0.365,0.363,0.365c0.202,0,0.367-0.165,0.367-0.365c0-0.202-0.165-0.363-0.367-0.363
		C44.74,51.938,44.578,52.1,44.578,52.302 M46.402,51.954c0,0,2.061-1.77,2.083-3.982l-0.739,0.029
		c-0.666,0.581-1.642,1.825-2.184,4.336c0,0,3.48,1.875,6.513-0.184C52.075,52.153,49.344,50.642,46.402,51.954 M43.005,53.086
		c0,0,2.656-1.573,2.792-3.997c0,0-2.113,0.374-3.683,4.234c0,0,3.097,2.45,6.443,0.945C48.558,54.269,46.133,52.306,43.005,53.086
		 M39.441,53.845c2.757-1.274,3.37-3.421,3.37-3.421c-2.145,0.152-3.983,3.375-3.983,3.375c2.401,2.447,5.515,2.143,5.515,2.143
		C42.914,54.047,39.441,53.845,39.441,53.845 M37.908,52.723v0.908c-0.418-0.663-2.058-3.055-3.904-3.173
		c0,0,0.627,2.14,3.395,3.396c0,0-3.471,0.23-4.888,2.131c0,0,3.026,0.273,5.396-2.084v1.478h0.92v-1.58v-1.076H37.908z
		 M50.631,44.343v1.941l8.683,7.203h1.737l-8.838-9.145H50.631z M49.551,50.243c0,0,0.787-0.942,1.177-2.271l-1.479-0.023
		c-0.235,0.725-0.414,1.648-0.456,2.82c0,0,3.199,1.062,5.76-0.793l-0.986-0.793C52.472,49.123,50.974,49.285,49.551,50.243
		 M32.32,52.442c0-0.199-0.163-0.364-0.362-0.364c-0.201,0-0.365,0.165-0.365,0.364c0,0.202,0.165,0.363,0.365,0.363
		C32.157,52.806,32.32,52.645,32.32,52.442 M56.606,42.281c0,0,0.497-3.045-1.271-4.708c0,0-1.075,1.855,0.871,5.541
		c0,0,3.871-0.796,4.868-4.328C61.074,38.786,58.011,39.382,56.606,42.281 M53.019,48.726l-1.278-1.042
		c0.028,0.323,0.069,0.669,0.131,1.035C51.872,48.719,52.332,48.775,53.019,48.726 M51.085,49.198c0.202,0,0.365-0.165,0.365-0.364
		c0-0.2-0.164-0.363-0.365-0.363c-0.199,0-0.361,0.163-0.361,0.363C50.724,49.033,50.886,49.198,51.085,49.198 M20.619,43.886
		c0,0.199,0.163,0.364,0.364,0.364c0.202,0,0.364-0.165,0.364-0.364c0-0.202-0.162-0.367-0.364-0.367
		C20.782,43.519,20.619,43.684,20.619,43.886 M17.965,36.833c3.023-2.871,2.6-4.972,2.6-4.972c-2.209,1.011-2.708,4.056-2.708,4.056
		c-0.41-3.194-3.12-4.744-3.12-4.744C14.555,34.839,17.965,36.833,17.965,36.833 M17.977,37.335c0,0.204,0.162,0.366,0.364,0.366
		c0.199,0,0.361-0.162,0.361-0.366c0-0.199-0.162-0.363-0.361-0.363C18.138,36.972,17.977,37.136,17.977,37.335 M23.163,14.58
		l-2.814-2.845c-1.743-1.742-3.813-0.594-3.813-0.594l5.549,5.526C22.454,15.249,23.163,14.58,23.163,14.58 M20.995,16.321
		l-4.787-4.789c0,0-2.005,1.436-0.447,4.789H20.995z M18.919,40.29c2.478-3.348,1.696-5.347,1.696-5.347
		c-1.997,1.381-1.961,4.464-1.961,4.464c-0.957-3.076-3.893-4.128-3.893-4.128C15.216,38.922,18.919,40.29,18.919,40.29
		 M21.141,49.78c0,0,0.571-0.339,1.391-0.461l-0.912-0.218l-0.087,0.115c0.053-0.071,0.087-0.115,0.087-0.115l-4.045,4.262
		c0,0-0.46,0.659-0.025,1.098c0,0,0.406,0.333,0.969-0.053l3.941-3.446C22.062,50.76,21.191,50.032,21.141,49.78 M28.814,48.051
		l-0.518-0.003c-0.031,2.289,2.174,4.096,2.174,4.096c-2.972-1.247-5.667,0.327-5.667,0.327c3.083,1.99,6.513,0.031,6.513,0.031
		C30.648,49.721,29.48,48.525,28.814,48.051 M20.463,43.531c1.858-3.727,0.743-5.56,0.743-5.56
		c-1.732,1.703-1.159,4.738-1.159,4.738c-1.478-2.864-4.553-3.387-4.553-3.387C16.575,42.825,20.463,43.531,20.463,43.531
		 M31.009,49.264c0.193,2.42,2.885,3.932,2.885,3.932c-3.143-0.71-5.524,1.31-5.524,1.31c3.383,1.424,6.42-1.099,6.42-1.099
		C33.13,49.587,31.009,49.264,31.009,49.264 M22.345,19.988c4.138,0.471,5.48-1.204,5.48-1.204
		c-2.197-1.039-4.849,0.532-4.849,0.532c2.183-2.365,1.626-5.436,1.626-5.436C21.678,16.095,22.345,19.988,22.345,19.988
		 M22.542,46.458c1.18-3.995-0.238-5.605-0.238-5.605c-1.404,1.979-0.314,4.865-0.314,4.865c-1.952-2.563-5.071-2.544-5.071-2.544
		C18.591,46.437,22.542,46.458,22.542,46.458 M52.797,43.188c0,0-0.258,0.271-0.345,0.685l0.771,0.8
		C53.179,44.172,53.052,43.664,52.797,43.188 M27.057,27.204l1.421,1.25h3.198c-0.154-0.253-0.106-1.225-0.106-1.225L27.057,27.204z
		 M34.995,17.834v-1.786h5.569v2.555h1.84v1.839h-1.789v0.817h1.789v1.994h-1.789v5.978h-1.534l-2.121-2.122l-1.939,1.939
		l-1.404-1.402l3.219-3.22l1.66,1.661v-8.253H34.995z M32.132,26.402c0,4.239,2.658,6.197,5.938,6.197
		c3.281,0,5.944-1.948,5.944-6.197V14.312h-11.88C32.133,14.312,32.132,22.164,32.132,26.402 M27.754,19.425
		c0,0-0.358,0.524-1.725,0.817l1.725,1.597V19.425z M42.938,37.074c0.391,0,0.391-0.29,0.397-0.588v-2.765h0.792v2.922
		c0,0.426-0.047,1.148-1.191,1.148c-0.737,0-1.179-0.345-1.179-1.096v-2.975h0.79v2.594C42.546,36.62,42.511,37.074,42.938,37.074
		 M44.979,38.601v0.74h-0.803v0.875h0.709v0.746h-0.709v0.902h0.815v0.746h-1.607v-4.01H44.979z M44.763,33.722h0.895l0.227,0.56
		c0.067,0.195,0.149,0.399,0.191,0.61h0.011c0.043-0.211,0.107-0.411,0.181-0.61l0.238-0.56h0.858l-0.858,1.938l0.922,2.069h-0.922
		l-0.254-0.638c-0.073-0.203-0.121-0.399-0.176-0.599h-0.009c-0.059,0.199-0.105,0.396-0.177,0.599l-0.231,0.638h-0.895l0.853-2.069
		L44.763,33.722z M47.176,42.61l-0.149-0.678h-0.803L46.08,42.61h-0.786l0.93-4.01h0.833l0.964,4.01H47.176z M42.106,42.61
		l-0.193-2.89h-0.011l-0.127,0.989l-0.341,1.9h-0.609l-0.389-1.922l-0.132-0.893v-0.075h-0.009l-0.12,2.89h-0.849l0.352-4.01h1.04
		l0.387,2.364h0.011l0.318-2.364h1.064l0.418,4.01H42.106z M39.538,33.722h0.793v3.266h0.827v0.741h-1.62V33.722z M38.521,33.105
		v13.589c0,0,0.767-0.765,1.838-0.765h8.431V29.07h-4.546C44.243,29.07,42.951,33.046,38.521,33.105 M35.116,34.85
		c0-0.289-0.14-0.52-0.535-0.498h-0.107v1.067l0.137,0.004C34.973,35.423,35.116,35.18,35.116,34.85 M46.617,39.63h-0.011
		l-0.084,0.609l-0.169,1.064h0.555l-0.201-1.064L46.617,39.63z M25.291,21.781h0.001c-0.146,0.115-1.157,1.039-2.695,1.226
		l0.522,0.493l5.515-0.025l-1.709-1.711H26.92l-0.867-0.869C26.054,20.895,25.441,21.677,25.291,21.781 M56.06,43.466
		c0-0.202-0.164-0.363-0.364-0.363c-0.199,0-0.367,0.161-0.367,0.363c0,0.199,0.167,0.364,0.367,0.364
		C55.896,43.83,56.06,43.665,56.06,43.466 M58.188,37.235c0.199,0,0.363-0.161,0.363-0.362c0-0.2-0.164-0.365-0.363-0.365
		c-0.202,0-0.365,0.165-0.365,0.365C57.823,37.074,57.987,37.235,58.188,37.235 M55.85,34.53c0,0-0.732,2.018,1.823,5.308
		c0,0,3.674-1.458,4.042-5.107c0,0-2.913,1.121-3.796,4.219C57.918,38.949,57.881,35.861,55.85,34.53 M58.637,35.44
		c0,0-0.572-3.038-2.807-3.994c0,0-0.372,2.116,2.717,4.909c0,0,3.364-2.073,3.095-5.73C61.641,30.625,58.965,32.234,58.637,35.44
		 M54.301,40.475c0,0-1.381,1.645-0.104,5.61c0,0,3.95-0.112,5.542-3.412c0,0-3.118,0.053-5.011,2.662
		C54.729,45.335,55.751,42.422,54.301,40.475 M58.73,31.854c0,0-1.092-2.884-3.456-3.443c0,0,0,2.148,3.527,4.364
		c0,0,2.95-2.626,2.051-6.181C60.853,26.595,58.5,28.644,58.73,31.854 M56.198,47.749c0.604-0.377,1.18-0.89,1.658-1.59
		c0,0-1.315-0.171-2.855,0.349L56.198,47.749z M33.202,40.212l-0.092-0.606h-0.009l-0.085,0.606l-0.171,1.067h0.562L33.202,40.212z
		 M21.471,16.535c-2.496,2.689-1.163,6.407-1.163,6.407c4.16-0.252,5.185-2.136,5.185-2.136c-2.341-0.644-4.681,1.365-4.681,1.365
		C22.553,19.462,21.471,16.535,21.471,16.535 M37.066,48.716h2.397c0,0,0.158-1.043,0.836-1.043h9.954V30.164l-0.993-1.043v17.353
		h-8.908c0,0-1.2,0.103-2.138,1.251c0,0-0.729-1.096-2.291-1.198h-8.705V29.277l-1.067,1.069v17.326h9.717
		C35.869,47.673,37.066,47.725,37.066,48.716 M18.444,30.284c0-0.203-0.167-0.365-0.365-0.365c-0.199,0-0.364,0.162-0.364,0.365
		c0,0.2,0.165,0.362,0.364,0.362C18.278,30.646,18.444,30.484,18.444,30.284 M18.123,28.784c0.709-3.143-1.308-5.523-1.308-5.523
		c-1.428,3.382,1.097,6.42,1.097,6.42c3.82-1.659,4.146-3.781,4.146-3.781C19.636,26.094,18.123,28.784,18.123,28.784
		 M15.431,27.125c-0.818,3.579,2.193,6.133,2.193,6.133c3.474-2.298,3.426-4.445,3.426-4.445c-2.35,0.612-3.372,3.524-3.372,3.524
		C17.83,29.12,15.431,27.125,15.431,27.125 M19.393,19.995c0,0-0.21-1.297,1.141-3.238h-4.569
		C15.965,16.757,16.16,17.286,19.393,19.995 M31.471,26.757v-0.498l-2.376-2.374h-5.569l3.147,2.872H31.471z M25.733,46.859
		c0.014,0.164,0.045-0.037,0.045-0.037v-2.37l-0.391,0.436C25.612,45.484,25.687,46.343,25.733,46.859 M19.883,23.572
		c0,0.203,0.162,0.367,0.364,0.367c0.201,0,0.364-0.164,0.364-0.367c0-0.199-0.163-0.362-0.364-0.362
		C20.044,23.21,19.883,23.373,19.883,23.572 M25.713,49.513c0.201,0,0.362-0.162,0.362-0.364s-0.162-0.362-0.362-0.362
		s-0.364,0.16-0.364,0.362S25.513,49.513,25.713,49.513 M28.251,22.377l3.219,3.166v-2.45l-3.219-3.22V22.377z M25.748,41.203
		h-1.532v1.939h1.532V41.203z M47.079,20.359l-2.505,2.723l0.026,4.353c0,0-0.075,0.715-0.229,1.07h1.609l4.597-4.597L47.079,20.359
		z M33.519,33.696v0.743h-0.802v0.874h0.706v0.744h-0.706v0.901h0.813v0.743h-1.606v-4l-1.107,4h-0.65l-1.156-4.006h0.849
		l0.478,1.922c0.07,0.23,0.096,0.461,0.145,0.688h0.01c0.042-0.233,0.059-0.464,0.123-0.696l0.482-1.913H33.519z M34.516,42.583
		H33.67l-0.149-0.677h-0.803l-0.143,0.677h-0.789l0.932-4.009h0.835L34.516,42.583z M33.682,33.696h0.796
		c0.502,0,1.406,0.053,1.406,1.149c0,0.44-0.174,0.816-0.566,1.034l0.693,1.822H35.18l-0.698-1.848h-0.008v1.848h-0.792V33.696z
		 M36.17,33.696h0.79v4.006h-0.79V33.696z M35.583,42.645c-0.221,0-0.499-0.068-0.678-0.202v-0.754
		c0.183,0.129,0.365,0.213,0.597,0.213c0.255,0,0.458-0.17,0.458-0.434c0-0.31-0.248-0.428-0.468-0.586
		c-0.456-0.309-0.739-0.604-0.739-1.191c0-0.632,0.369-1.18,1.047-1.18c0.255,0,0.482,0.072,0.703,0.199v0.769
		c-0.162-0.138-0.358-0.255-0.576-0.255c-0.244,0-0.399,0.149-0.399,0.392c0,0.662,1.207,0.696,1.207,1.78
		C36.735,42.109,36.328,42.645,35.583,42.645 M31.646,39.319h-0.63v3.264h-0.79v-3.264h-0.622v-0.745h2.042V39.319z M27.691,29.07
		V45.93h8.352c0.944,0.024,1.916,0.765,1.916,0.765V33.205C32.9,33.096,31.88,29.07,31.88,29.07H27.691z M28.056,51.012
		c-0.081-1.284-0.314-2.221-0.602-2.971h-1.48c0.401,1.406,1.31,2.467,1.31,2.467c-2.712-1.743-5.636-0.66-5.636-0.66
		C24.335,52.346,28.056,51.012,28.056,51.012 M23.031,24.004l-0.744-0.695c-1.801,0.456-3.107,2.054-3.107,2.054
		c0.843-2.023,0.387-3.914,0.008-4.921l-0.543-0.44c-1.56,2.958,0.171,6.208,0.171,6.208C21.216,25.63,22.434,24.682,23.031,24.004
		 M18.992,46.716c2.214,2.927,6.105,2.259,6.105,2.259c0.471-4.139-1.204-5.48-1.204-5.48c-1.04,2.196,0.531,4.851,0.531,4.851
		C22.06,46.156,18.992,46.716,18.992,46.716 M25.698,32.032h-1.532v1.942h1.532V32.032z"/>
</g>
</svg>
