<svg width="133" height="59" viewBox="0 0 133 59" xmlns="http://www.w3.org/2000/svg" xmlns:xlink="http://www.w3.org/1999/xlink">
    <defs>
        <path id="tq40f5y1sa" d="M0 0h27.538v57.701H0z"/>
        <path id="t9q31cwyxc" d="M0 0h29.977v56.747H0z"/>
        <path id="wpqtw7uyie" d="M0 0h24.042v52.5H0z"/>
        <path id="2kl9d6hq4g" d="M0 0h27.538v57.701H0z"/>
        <path id="5ko0rgnbti" d="M0 0h29.977v56.747H0z"/>
        <path id="ea80l25vhk" d="M0 0h24.042v52.5H0z"/>
    </defs>
    <g fill="none" fill-rule="evenodd">
        <g transform="translate(70.204 .959)">
            <mask id="wlzn63c1jb" fill="#fff">
                <use xlink:href="#tq40f5y1sa"/>
            </mask>
            <path d="M27.538 16.816h-8.025v-1.834c0-1.858-.434-3.466-1.298-4.821-.866-1.355-2.321-2.032-4.368-2.032-1.101 0-2.005.214-2.713.638A4.673 4.673 0 0 0 9.48 10.4c-.393.665-.668 1.435-.826 2.312a15.56 15.56 0 0 0-.237 2.749c0 1.117.04 2.06.119 2.829.08.77.276 1.435.59 1.993.315.558.774 1.05 1.377 1.473.602.427 1.428.853 2.478 1.277l6.138 2.47c1.782.69 3.226 1.502 4.326 2.43a9.848 9.848 0 0 1 2.558 3.269c.603 1.248 1.009 2.683 1.22 4.303.208 1.622.314 3.467.314 5.54 0 2.39-.235 4.61-.709 6.654-.471 2.046-1.245 3.8-2.32 5.26-1.076 1.463-2.505 2.618-4.288 3.468-1.784.85-3.961 1.274-6.531 1.274-1.94 0-3.75-.346-5.429-1.035-1.678-.69-3.12-1.634-4.327-2.829-1.207-1.196-2.164-2.617-2.872-4.265C.354 47.927 0 46.145 0 44.232v-3.028h8.025v2.55c0 1.489.434 2.83 1.298 4.025.867 1.195 2.322 1.793 4.367 1.793 1.364 0 2.426-.199 3.187-.598.76-.398 1.338-.955 1.73-1.673.395-.718.643-1.607.748-2.67.104-1.062.158-2.232.158-3.507 0-1.486-.054-2.71-.158-3.666-.105-.956-.327-1.725-.668-2.311a4.123 4.123 0 0 0-1.416-1.435c-.604-.371-1.404-.77-2.4-1.196l-5.744-2.39c-3.462-1.435-5.783-3.334-6.963-5.7-1.181-2.363-1.77-5.325-1.77-8.885 0-2.125.287-4.144.865-6.058.576-1.912 1.429-3.559 2.558-4.942 1.127-1.38 2.556-2.483 4.287-3.306C9.834.412 11.854 0 14.162 0c1.993 0 3.816.372 5.47 1.115 1.652.745 3.068 1.727 4.247 2.95a13.118 13.118 0 0 1 2.715 4.104c.63 1.513.944 3.067.944 4.661v3.986z" fill="#FFF" fill-rule="nonzero" mask="url(#wlzn63c1jb)"/>
        </g>
        <g transform="translate(102.519 1.458)">
            <mask id="z0w91rcf3d" fill="#fff">
                <use xlink:href="#t9q31cwyxc"/>
            </mask>
            <path fill="#FFF" fill-rule="nonzero" mask="url(#z0w91rcf3d)" d="M18.49 56.747h-7.081L0 0h8.498l6.372 39.61h.158L21.479 0h8.498z"/>
        </g>
        <g transform="translate(38.852 6.197)">
            <mask id="w47wgyc0af" fill="#fff">
                <use xlink:href="#wpqtw7uyie"/>
            </mask>
            <path d="M22.861 2.584A13.686 13.686 0 0 0 21.356 0l-5.343 11.892v26.733c0 1.968-.538 3.417-1.614 4.347-1.076.93-2.349 1.395-3.817 1.395-1.47 0-2.743-.464-3.819-1.395-1.075-.93-1.613-2.379-1.613-4.347v-2.55L0 47.534c.432.544.9 1.045 1.411 1.498a13.33 13.33 0 0 0 4.329 2.592c1.6.583 3.214.877 4.842.877 1.625 0 3.239-.294 4.84-.877a13.36 13.36 0 0 0 4.33-2.592c1.285-1.142 2.323-2.578 3.11-4.306.787-1.727 1.18-3.76 1.18-6.1V8.643c0-2.285-.393-4.306-1.18-6.06" fill="#FFF" fill-rule="nonzero" mask="url(#w47wgyc0af)"/>
        </g>
        <g transform="translate(70.204 .959)">
            <mask id="026p6ribjh" fill="#fff">
                <use xlink:href="#2kl9d6hq4g"/>
            </mask>
            <path d="M27.538 16.816h-8.025v-1.834c0-1.858-.434-3.466-1.298-4.821-.866-1.355-2.321-2.032-4.368-2.032-1.101 0-2.005.214-2.713.638A4.673 4.673 0 0 0 9.48 10.4c-.393.665-.668 1.435-.826 2.312a15.56 15.56 0 0 0-.237 2.749c0 1.117.04 2.06.119 2.829.08.77.276 1.435.59 1.993.315.558.774 1.05 1.377 1.473.602.427 1.428.853 2.478 1.277l6.138 2.47c1.782.69 3.226 1.502 4.326 2.43a9.848 9.848 0 0 1 2.558 3.269c.603 1.248 1.009 2.683 1.22 4.303.208 1.622.314 3.467.314 5.54 0 2.39-.235 4.61-.709 6.654-.471 2.046-1.245 3.8-2.32 5.26-1.076 1.463-2.505 2.618-4.288 3.468-1.784.85-3.961 1.274-6.531 1.274-1.94 0-3.75-.346-5.429-1.035-1.678-.69-3.12-1.634-4.327-2.829-1.207-1.196-2.164-2.617-2.872-4.265C.354 47.927 0 46.145 0 44.232v-3.028h8.025v2.55c0 1.489.434 2.83 1.298 4.025.867 1.195 2.322 1.793 4.367 1.793 1.364 0 2.426-.199 3.187-.598.76-.398 1.338-.955 1.73-1.673.395-.718.643-1.607.748-2.67.104-1.062.158-2.232.158-3.507 0-1.486-.054-2.71-.158-3.666-.105-.956-.327-1.725-.668-2.311a4.123 4.123 0 0 0-1.416-1.435c-.604-.371-1.404-.77-2.4-1.196l-5.744-2.39c-3.462-1.435-5.783-3.334-6.963-5.7-1.181-2.363-1.77-5.325-1.77-8.885 0-2.125.287-4.144.865-6.058.576-1.912 1.429-3.559 2.558-4.942 1.127-1.38 2.556-2.483 4.287-3.306C9.834.412 11.854 0 14.162 0c1.993 0 3.816.372 5.47 1.115 1.652.745 3.068 1.727 4.247 2.95a13.118 13.118 0 0 1 2.715 4.104c.63 1.513.944 3.067.944 4.661v3.986z" fill="#FFF" fill-rule="nonzero" mask="url(#026p6ribjh)"/>
        </g>
        <g transform="translate(102.519 1.458)">
            <mask id="wbubdf2rkj" fill="#fff">
                <use xlink:href="#5ko0rgnbti"/>
            </mask>
            <path fill="#FFF" fill-rule="nonzero" mask="url(#wbubdf2rkj)" d="M18.49 56.747h-7.081L0 0h8.498l6.372 39.61h.158L21.479 0h8.498z"/>
        </g>
        <g transform="translate(38.852 6.197)">
            <mask id="hu9o0rcphl" fill="#fff">
                <use xlink:href="#ea80l25vhk"/>
            </mask>
            <path d="M22.861 2.584A13.686 13.686 0 0 0 21.356 0l-5.343 11.892v26.733c0 1.968-.538 3.417-1.614 4.347-1.076.93-2.349 1.395-3.817 1.395-1.47 0-2.743-.464-3.819-1.395-1.075-.93-1.613-2.379-1.613-4.347v-2.55L0 47.534c.432.544.9 1.045 1.411 1.498a13.33 13.33 0 0 0 4.329 2.592c1.6.583 3.214.877 4.842.877 1.625 0 3.239-.294 4.84-.877a13.36 13.36 0 0 0 4.33-2.592c1.285-1.142 2.323-2.578 3.11-4.306.787-1.727 1.18-3.76 1.18-6.1V8.643c0-2.285-.393-4.306-1.18-6.06" fill="#FFF" fill-rule="nonzero" mask="url(#hu9o0rcphl)"/>
        </g>
        <path d="M28.31 17.79h-8.025v-1.833c0-1.86-.431-3.467-1.298-4.822-.864-1.356-2.32-2.033-4.366-2.033-1.101 0-2.006.214-2.715.638a4.674 4.674 0 0 0-1.651 1.634c-.394.664-.67 1.434-.826 2.31a15.429 15.429 0 0 0-.237 2.751c0 1.115.04 2.059.117 2.829.08.77.276 1.434.59 1.992.315.558.774 1.05 1.378 1.475.602.427 1.429.85 2.48 1.275l6.135 2.47c1.783.691 3.227 1.502 4.328 2.432a9.889 9.889 0 0 1 2.558 3.267c.602 1.249 1.009 2.684 1.22 4.304.207 1.622.313 3.467.313 5.539 0 2.39-.236 4.61-.708 6.656-.472 2.045-1.247 3.798-2.32 5.26-1.076 1.46-2.506 2.617-4.29 3.466-1.783.849-3.96 1.275-6.53 1.275-1.94 0-3.75-.347-5.428-1.036-1.68-.69-3.122-1.634-4.327-2.829-1.208-1.196-2.164-2.617-2.873-4.264C1.128 48.9.773 47.12.773 45.206v-3.029h8.025v2.551c0 1.488.433 2.829 1.3 4.024.864 1.197 2.32 1.794 4.366 1.794 1.363 0 2.425-.2 3.185-.597.761-.4 1.338-.957 1.732-1.675.393-.717.642-1.606.748-2.67.104-1.062.156-2.23.156-3.506 0-1.487-.052-2.71-.156-3.666-.106-.957-.329-1.726-.67-2.312a4.11 4.11 0 0 0-1.416-1.434c-.603-.37-1.404-.77-2.399-1.195L9.9 31.099c-3.462-1.435-5.783-3.333-6.963-5.698-1.18-2.363-1.77-5.326-1.77-8.887 0-2.123.287-4.144.866-6.056.576-1.913 1.428-3.56 2.556-4.942 1.128-1.382 2.558-2.483 4.289-3.308 1.73-.823 3.748-1.235 6.058-1.235 1.993 0 3.816.373 5.469 1.116 1.651.745 3.067 1.728 4.248 2.949a13.123 13.123 0 0 1 2.714 4.104c.63 1.515.944 3.069.944 4.663v3.984zM44.002 14.841c0-1.966.538-3.415 1.614-4.346 1.075-.93 2.348-1.395 3.818-1.395.212 0 .43.01.633.03l3.398-7.554a13.86 13.86 0 0 0-4.03-.61c-1.629 0-3.242.293-4.843.877a13.392 13.392 0 0 0-4.33 2.592c-1.285 1.143-2.32 2.59-3.108 4.345-.787 1.754-1.181 3.776-1.181 6.061v29.982c0 2.34.394 4.373 1.18 6.1a13.567 13.567 0 0 0 1.7 2.808l5.149-11.46v-27.43z" fill="#DAD6E5" fill-rule="nonzero"/>
    </g>
</svg>
